<?xml version="1.0" encoding="utf-8"?>
<!-- Generator: Adobe Illustrator 19.0.0, SVG Export Plug-In . SVG Version: 6.00 Build 0)  -->
<svg version="1.1" id="Capa_1" xmlns="http://www.w3.org/2000/svg" xmlns:xlink="http://www.w3.org/1999/xlink" x="0px" y="0px"
	 viewBox="-280 372 50 50" style="enable-background:new -280 372 50 50;" xml:space="preserve">
<style type="text/css">
	.st0{opacity:0.1;}
	.st1{fill:#FFFFFF;}
</style>
<g id="Capa_7">
</g>
<g id="Capa_1_1_">
</g>
<g id="Capa_3">
</g>
<g id="Capa_5">
</g>
<g id="Capa_4">
</g>
<g id="Capa_2">
</g>
<g>
	<path class="st0" d="M-250.1,378.7c-9.6,0-17.5,7.5-18.2,16.9l-9.8,3.2l11.4,5.9c2.9,6.2,9.2,10.6,16.6,10.6
		c10.1,0,18.3-8.2,18.3-18.3S-240,378.7-250.1,378.7z"/>
	<path class="st1" d="M-239.4,396.7c0-3-2.5-5.5-5.5-5.5c-2,0-3.7,1.1-4.6,2.5c-0.9-1.6-2.8-2.5-4.6-2.5c-3,0-5.5,2.5-5.5,5.5
		c0,2.1,1.2,3.9,2.9,4.9l7.2,4.2l7.2-4.2C-240.6,400.7-239.4,398.8-239.4,396.7z"/>
</g>
</svg>
