<?xml version="1.0" encoding="utf-8"?>
<!-- Generator: Adobe Illustrator 19.0.0, SVG Export Plug-In . SVG Version: 6.00 Build 0)  -->
<svg version="1.1" id="Capa_1" xmlns="http://www.w3.org/2000/svg" xmlns:xlink="http://www.w3.org/1999/xlink" x="0px" y="0px"
	 viewBox="-280 372 50 50" style="enable-background:new -280 372 50 50;" xml:space="preserve">
<style type="text/css">
	.st0{opacity:0.1;}
	.st1{fill:#FDFDFD;}
</style>
<g id="Capa_7">
</g>
<g id="Capa_1_1_">
</g>
<g id="Capa_3">
</g>
<g id="Capa_5">
</g>
<g id="Capa_4">
</g>
<g id="Capa_2">
</g>
<path class="st0" d="M-250.2,378.5c-9.9,0-17.9,7.7-18.4,17.4l-9.8,3.3l11.6,5.9c3,6.1,9.3,10.4,16.6,10.4
	c10.2,0,18.5-8.3,18.5-18.5S-239.9,378.5-250.2,378.5z"/>
<path class="st1" d="M-248.5,387.5c-0.3,0.8,0.3,1.1,0.9,1.1c0.9,0.2,1.9,0.5,2.7,1.1c0.6,0.3,0.8,0.8,0.5,1.6
	c0,0.2-0.2,0.3-0.2,0.5c-1.1,1.9-1.1,1.9-3,1.3c-1.1-0.3-2.1-0.6-3.2-0.2s-1.1,1.3-0.3,2.1c0.5,0.5,1.1,0.6,1.7,0.9
	c0.8,0.3,1.7,0.6,2.5,1.1c1.9,1.1,3,2.7,3,4.9s-1.3,3.8-3.2,4.7c-0.5,0.2-0.9,0.5-1.4,0.5c-0.9,0.2-1.3,0.5-1.3,1.4
	s-0.5,1.4-1.4,1.3c-0.8,0-1.3-0.5-1.3-1.4c0-0.8-0.2-1.3-1.1-1.4s-1.9-0.6-2.7-1.1c-0.2-0.2-0.3-0.2-0.5-0.3
	c-0.6-0.6-0.3-2.1,0.8-3.3c0.5-0.6,1.1-0.5,1.7,0c1.4,0.9,2.8,1.4,4.4,0.9c0.6-0.2,1.3-0.5,1.4-1.3c0.2-0.8-0.3-1.1-0.8-1.6
	c-0.6-0.5-1.4-0.8-2.2-0.9c-0.9-0.3-1.7-0.8-2.5-1.3c-1.6-1.3-2.5-2.7-2.2-4.7c0.3-2.1,1.4-3.5,3.3-4.1c1.1-0.5,1.4-0.9,1.3-1.9
	c-0.2-0.6,0.2-1.1,0.9-1.4c0.6-0.2,1.1,0,1.6,0.5C-248.5,386.6-248.5,387-248.5,387.5z"/>
</svg>
