<svg xmlns="http://www.w3.org/2000/svg" width="83" height="83" viewBox="0 0 83 83">
  <g id="growth" transform="translate(0)">
    <g id="Group_95" data-name="Group 95" transform="translate(0 0)">
      <path id="Path_82" data-name="Path 82" d="M81.784,236.144H76.777V217.175a1.216,1.216,0,0,0-2.432,0v18.968H63.676V194.362H74.345V211.5a1.216,1.216,0,1,0,2.432,0V193.146a1.216,1.216,0,0,0-1.216-1.216h-13.1a1.216,1.216,0,0,0-1.216,1.216v43H58.436V199.7a1.216,1.216,0,0,0-1.216-1.216H44.12A1.216,1.216,0,0,0,42.9,199.7v36.448H40.1V209.522a1.216,1.216,0,0,0-1.216-1.216h-13.1a1.216,1.216,0,0,0-1.216,1.216v26.622H21.755V217.382a1.216,1.216,0,0,0-1.216-1.216H7.439a1.216,1.216,0,0,0-1.216,1.216v18.762H1.216A1.216,1.216,0,0,0,0,237.36V242.6a1.216,1.216,0,0,0,1.216,1.216H14.347a1.216,1.216,0,0,0,0-2.432H2.432v-2.809H80.568v2.809H20.02a1.216,1.216,0,0,0,0,2.432H81.784A1.216,1.216,0,0,0,83,242.6V237.36a1.216,1.216,0,0,0-1.216-1.216ZM45.336,200.912H56v35.232H45.336ZM27,210.737H37.664v25.406H27ZM8.654,218.6H19.323v17.546H8.654Z" transform="translate(0 -160.816)" fill="#070040"/>
      <path id="Path_83" data-name="Path 83" d="M38.6,44.353H57.1a3.845,3.845,0,0,0,2.829-1.244L75,26.667H85.266a3.811,3.811,0,0,0,2.713-1.123L100.426,13.1v3.841a1.216,1.216,0,0,0,1.216,1.216h5.239a1.216,1.216,0,0,0,1.216-1.216V3.836A3.84,3.84,0,0,0,104.261,0h-13.1a1.216,1.216,0,0,0-1.216,1.216V6.457a1.216,1.216,0,0,0,1.216,1.216H95L83.677,19H73.312a3.844,3.844,0,0,0-2.827,1.244L55.412,36.682H52.059a1.216,1.216,0,1,0,0,2.432h3.887a1.215,1.215,0,0,0,.9-.394L72.277,21.883a1.406,1.406,0,0,1,1.034-.455H84.181a1.215,1.215,0,0,0,.86-.356L98.8,7.317a1.216,1.216,0,0,0-.86-2.075H92.377V2.432h11.884a1.405,1.405,0,0,1,1.4,1.4V15.721h-2.808v-5.56a1.216,1.216,0,0,0-2.075-.86L86.259,23.825a1.4,1.4,0,0,1-.993.411h-10.8a1.216,1.216,0,0,0-.9.394L58.135,41.466a1.408,1.408,0,0,1-1.036.455H39.812V39.114h6.574a1.216,1.216,0,1,0,0-2.432H38.6A1.216,1.216,0,0,0,37.38,37.9v5.239A1.216,1.216,0,0,0,38.6,44.353Z" transform="translate(-31.32 0)" fill="#672bbf"/>
    </g>
  </g>
</svg>
