<svg xmlns="http://www.w3.org/2000/svg" width="185.391" height="89.333" viewBox="0 0 185.391 89.333">
  <g id="Group_101" data-name="Group 101" transform="translate(464 -256.5)">
    <g id="Group_99" data-name="Group 99" transform="translate(-360.935 282.787)">
      <g id="Group_6" data-name="Group 6">
        <g id="Group_1" data-name="Group 1" transform="translate(0 0.262)">
          <path id="Path_1" data-name="Path 1" d="M582.575,484.5a8.721,8.721,0,0,0-3.606-.694h-6.614a.2.2,0,0,0-.195.195v15.282a.2.2,0,0,0,.195.195h3.536a.2.2,0,0,0,.195-.195v-4.019h2.883a8.84,8.84,0,0,0,3.605-.683,5.364,5.364,0,0,0,2.388-1.994,5.956,5.956,0,0,0,0-6.095A5.455,5.455,0,0,0,582.575,484.5Zm-6.489,2.577h2.687a3.549,3.549,0,0,1,2.3.643,2.218,2.218,0,0,1,.759,1.826,2.191,2.191,0,0,1-.759,1.8,3.546,3.546,0,0,1-2.3.643h-2.687Z" transform="translate(-572.16 -483.809)" fill="#070040"/>
        </g>
        <g id="Group_2" data-name="Group 2" transform="translate(15.987)">
          <path id="Path_2" data-name="Path 2" d="M634.671,484.046a9.649,9.649,0,0,0-8.753,0,7.837,7.837,0,0,0-3.065,2.9,8.32,8.32,0,0,0,0,8.3,7.833,7.833,0,0,0,3.065,2.9,9.653,9.653,0,0,0,8.753,0,7.989,7.989,0,0,0,0-14.1Zm.215,7.048a4.94,4.94,0,0,1-.6,2.438,4.294,4.294,0,0,1-1.64,1.661,4.92,4.92,0,0,1-4.7,0,4.293,4.293,0,0,1-1.64-1.661,5.274,5.274,0,0,1,0-4.875,4.3,4.3,0,0,1,1.64-1.661,4.919,4.919,0,0,1,4.7,0,4.3,4.3,0,0,1,1.64,1.661A4.941,4.941,0,0,1,634.887,491.094Z" transform="translate(-621.744 -482.996)" fill="#070040"/>
        </g>
        <g id="Group_3" data-name="Group 3" transform="translate(35.839 0.262)">
          <path id="Path_3" data-name="Path 3" d="M691.646,490.825l6.218-6.689a.195.195,0,0,0-.143-.327h-3.93a.194.194,0,0,0-.141.061l-6.432,6.784V484a.2.2,0,0,0-.195-.195h-3.515a.2.2,0,0,0-.2.195v15.282a.2.2,0,0,0,.2.195h3.515a.2.2,0,0,0,.195-.195V495.5l1.846-1.924,4.751,5.833a.2.2,0,0,0,.151.072h4.126a.195.195,0,0,0,.153-.316Z" transform="translate(-683.314 -483.809)" fill="#070040"/>
        </g>
        <g id="Group_4" data-name="Group 4" transform="translate(53.522 0.262)">
          <path id="Path_4" data-name="Path 4" d="M750.184,496.253h-8.123v-3.147h6.9a.2.2,0,0,0,.195-.195V490.16a.2.2,0,0,0-.195-.195h-6.9v-2.929H749.9a.2.2,0,0,0,.195-.195V484a.2.2,0,0,0-.195-.195H738.352a.2.2,0,0,0-.2.195v15.282a.2.2,0,0,0,.2.195h11.832a.2.2,0,0,0,.2-.195v-2.838A.2.2,0,0,0,750.184,496.253Z" transform="translate(-738.157 -483.809)" fill="#070040"/>
        </g>
        <g id="Group_5" data-name="Group 5" transform="translate(68.619 0.262)">
          <path id="Path_5" data-name="Path 5" d="M798.492,483.809H785.175a.2.2,0,0,0-.195.195v2.882a.2.2,0,0,0,.195.195h4.7v12.206a.2.2,0,0,0,.2.195H793.6a.2.2,0,0,0,.2-.195V487.08h4.7a.2.2,0,0,0,.2-.195V484A.2.2,0,0,0,798.492,483.809Z" transform="translate(-784.98 -483.809)" fill="#070040"/>
        </g>
      </g>
      <g id="Group_12" data-name="Group 12" transform="translate(0 20.826)">
        <g id="Group_7" data-name="Group 7">
          <path id="Path_6" data-name="Path 6" d="M589.536,547.587h-2.9a.2.2,0,0,0-.168.1L581,556.9l-5.551-9.218a.2.2,0,0,0-.167-.094h-2.925a.2.2,0,0,0-.195.195v15.282a.2.2,0,0,0,.195.195h3.318a.2.2,0,0,0,.195-.195v-8.277l4.114,6.763a.2.2,0,0,0,.167.094h1.594a.193.193,0,0,0,.167-.1l4.137-6.948.02,8.464a.2.2,0,0,0,.195.194h3.318a.2.2,0,0,0,.2-.2l-.044-15.282A.2.2,0,0,0,589.536,547.587Z" transform="translate(-572.16 -547.587)" fill="#fbbc33"/>
        </g>
        <g id="Group_8" data-name="Group 8" transform="translate(20.848)">
          <path id="Path_7" data-name="Path 7" d="M648.847,560.031h-8.123v-3.147h6.9a.2.2,0,0,0,.2-.195v-2.751a.2.2,0,0,0-.2-.195h-6.9v-2.929h7.839a.2.2,0,0,0,.195-.2v-2.838a.2.2,0,0,0-.195-.195H637.014a.2.2,0,0,0-.2.195v15.282a.2.2,0,0,0,.2.195h11.833a.2.2,0,0,0,.2-.195v-2.838A.2.2,0,0,0,648.847,560.031Z" transform="translate(-636.819 -547.587)" fill="#fbbc33"/>
        </g>
        <g id="Group_9" data-name="Group 9" transform="translate(36.229)">
          <path id="Path_8" data-name="Path 8" d="M698.735,547.587h-3.493a.2.2,0,0,0-.195.195v8.733l-7.251-8.856a.2.2,0,0,0-.151-.071h-2.926a.2.2,0,0,0-.195.195v15.282a.2.2,0,0,0,.195.195h3.493a.2.2,0,0,0,.2-.195V554.33l7.274,8.858a.2.2,0,0,0,.151.071h2.9a.2.2,0,0,0,.195-.195V547.782A.2.2,0,0,0,698.735,547.587Z" transform="translate(-684.524 -547.587)" fill="#fbbc33"/>
        </g>
        <g id="Group_10" data-name="Group 10" transform="translate(53.913)">
          <path id="Path_9" data-name="Path 9" d="M753.4,547.587h-3.493a.2.2,0,0,0-.2.195v8.427a4.475,4.475,0,0,1-.824,2.983,3.021,3.021,0,0,1-2.386.927c-2.161,0-3.211-1.279-3.211-3.91v-8.427a.2.2,0,0,0-.2-.195h-3.536a.2.2,0,0,0-.195.195v8.558a7.131,7.131,0,1,0,14.231,0v-8.558A.2.2,0,0,0,753.4,547.587Z" transform="translate(-739.368 -547.587)" fill="#fbbc33"/>
        </g>
        <g id="Group_11" data-name="Group 11" transform="translate(70.024 11.221)">
          <path id="Path_10" data-name="Path 10" d="M793.291,583.021h0a2.446,2.446,0,0,0-3.281,0,2.189,2.189,0,0,0-.672,1.659,2.268,2.268,0,0,0,.668,1.666,2.357,2.357,0,0,0,3.288,0,2.271,2.271,0,0,0,.668-1.666A2.19,2.19,0,0,0,793.291,583.021Z" transform="translate(-789.338 -582.389)" fill="#fbbc33"/>
        </g>
      </g>
    </g>
    <g id="Group_100" data-name="Group 100" transform="translate(-464 256.5)">
      <g id="Group_14" data-name="Group 14" transform="translate(12.618 13.28)">
        <path id="Path_11" data-name="Path 11" d="M355.739,476.1V442.654h-64.1V476.1a101.649,101.649,0,0,0,64.1,0Zm-44.586-11.7a6.182,6.182,0,1,1,6.183-6.182A6.183,6.183,0,0,1,311.153,464.4Zm6.536,4.578a1.19,1.19,0,0,1,1.145-1.487h9.714a1.189,1.189,0,0,1,1.145,1.487,6.184,6.184,0,0,1-12.005,0Z" transform="translate(-291.643 -442.654)" fill="#fff"/>
      </g>
      <g id="Group_15" data-name="Group 15" transform="translate(12.618 3.896)">
        <rect id="Rectangle_2" data-name="Rectangle 2" width="64.096" height="5.487" fill="#fbbc33"/>
      </g>
      <g id="Group_16" data-name="Group 16" transform="translate(4.007 47.676)">
        <path id="Path_12" data-name="Path 12" d="M305.623,557.461a106.759,106.759,0,0,1-40.686-8.128,40.77,40.77,0,0,0,81.318,0,106.823,106.823,0,0,1-39.636,8.124Q306.121,557.461,305.623,557.461Z" transform="translate(-264.937 -549.332)" fill="#672bbf"/>
      </g>
      <g id="Group_17" data-name="Group 17" transform="translate(80.611 22.634)">
        <path id="Path_13" data-name="Path 13" d="M505.553,471.668h-3.034v22.71q2.441-.916,4.826-1.955V473.46A1.794,1.794,0,0,0,505.553,471.668Z" transform="translate(-502.519 -471.668)" fill="#672bbf"/>
      </g>
      <g id="Group_18" data-name="Group 18" transform="translate(0 0)">
        <path id="Path_14" data-name="Path 14" d="M336.152,420.206h-3.034v-16.79a1.948,1.948,0,0,0-1.948-1.948H263.178a1.948,1.948,0,0,0-1.948,1.948v16.79H258.2a5.7,5.7,0,0,0-5.688,5.688v20.24a44.666,44.666,0,1,0,89.333,0v-.045h0V425.895A5.7,5.7,0,0,0,336.152,420.206Zm-71.026-14.842h64.1v5.487h-64.1Zm0,9.383h64.1v33.447a101.648,101.648,0,0,1-64.1,0ZM256.4,425.895A1.794,1.794,0,0,1,258.2,424.1h3.034v22.71q-2.439-.916-4.826-1.956Zm40.77,61.01a40.823,40.823,0,0,1-40.659-37.761,106.758,106.758,0,0,0,40.686,8.128q.5,0,1,0a106.823,106.823,0,0,0,39.636-8.124A40.823,40.823,0,0,1,297.174,486.9Zm40.77-42.047q-2.384,1.039-4.826,1.955V424.1h3.034a1.794,1.794,0,0,1,1.792,1.792Z" transform="translate(-252.508 -401.468)" fill="#070040"/>
      </g>
      <g id="Group_19" data-name="Group 19" transform="translate(25.946 22.661)">
        <circle id="Ellipse_1" data-name="Ellipse 1" cx="6.182" cy="6.182" r="6.182" fill="#070040"/>
      </g>
      <g id="Group_20" data-name="Group 20" transform="translate(38.628 38.117)">
        <path id="Path_15" data-name="Path 15" d="M384.351,521.174a1.189,1.189,0,0,0-1.145-1.487h-9.714a1.19,1.19,0,0,0-1.145,1.487,6.184,6.184,0,0,0,12.005,0Z" transform="translate(-372.31 -519.687)" fill="#070040"/>
      </g>
      <g id="Group_21" data-name="Group 21" transform="translate(52.096 23.218)">
        <path id="Path_16" data-name="Path 16" d="M422.529,484.729a1.763,1.763,0,0,1-.883-.237l-6.681-3.857a1.768,1.768,0,0,1,0-3.063l6.681-3.857a1.768,1.768,0,1,1,1.768,3.063l-4.028,2.326,4.028,2.326a1.769,1.769,0,0,1-.886,3.3Z" transform="translate(-414.081 -473.478)" fill="#070040"/>
      </g>
      <g id="Group_22" data-name="Group 22" transform="translate(3.896 22.634)">
        <path id="Path_17" data-name="Path 17" d="M269.418,471.668h-3.034a1.794,1.794,0,0,0-1.792,1.792v18.962q2.386,1.039,4.826,1.956Z" transform="translate(-264.592 -471.668)" fill="#672bbf"/>
      </g>
    </g>
  </g>
</svg>
