<?xml version="1.0" encoding="utf-8"?>
<!-- Generator: Adobe Illustrator 19.0.0, SVG Export Plug-In . SVG Version: 6.00 Build 0)  -->
<svg version="1.1" id="Capa_1" xmlns="http://www.w3.org/2000/svg" xmlns:xlink="http://www.w3.org/1999/xlink" x="0px" y="0px"
	 viewBox="617.4 711.1 50 50" style="enable-background:new 617.4 711.1 50 50;" xml:space="preserve">
<style type="text/css">
	.st0{fill:#B3B149;}
	.st1{fill:#E48C3B;}
	.st2{fill:#383C4E;}
</style>
<g id="Capa_7">
</g>
<g id="Capa_1_1_">
</g>
<g id="Capa_3">
</g>
<g id="Capa_5">
</g>
<g id="Capa_4">
</g>
<g id="Capa_2">
</g>
<g>
	<g>
		<g>
			<path class="st0" d="M643.7,725.2c1.1-1.9,3.4-3,5.6-3.2c2.2-0.3,4.4,0.2,6.6,0.5c-0.6,1.5-2.1,2.5-3.7,3.1c-2.8,1-6,1-8.7,0"/>
		</g>
	</g>
	<g>
		<g>
			<path class="st0" d="M643.3,725.5c0.6-2.1,0.8-4.3,0.5-6.5s-1.4-4.2-3.1-5.6c-1.7,1.8-2.4,4.6-1.8,7s2.4,4.6,4.7,5.5"/>
		</g>
	</g>
	<g>
		<g>
			<path class="st1" d="M655.5,754.2c5.1-6,4.8-17.6-1.8-22.5c-2.1-1.5-4.5-2.5-7-3.1c-5.4-1.4-11.2-0.5-15.4,3.4
				c-2.7,2.4-4.3,5.9-5.1,9.4c-0.4,1.7-0.5,3.4-0.4,5c0.6,5.7,5.5,10.2,10.9,12.1C643.1,760.6,651.1,759.4,655.5,754.2z"/>
		</g>
	</g>
	<g>
		<g>
			<g>
				<path class="st2" d="M642,733.6c0.2,0.1,0.4,0.1,0.5,0.2c0.4-6,2.2-11.8,5.3-16.9c0.3-0.5-0.5-0.9-0.8-0.5
					c-3.2,5.2-5,11.1-5.5,17.2C641.8,733.6,641.9,733.6,642,733.6z"/>
			</g>
		</g>
	</g>
	<g>
		<g>
			<g>
				<path class="st2" d="M636.5,732.9c4,1.9,8.5,1.8,12.4-0.2c0.5-0.2,0.1-1-0.5-0.8c-3.6,1.9-7.8,2-11.4,0.2
					C636.4,731.9,636,732.6,636.5,732.9L636.5,732.9z"/>
			</g>
		</g>
	</g>
</g>
</svg>
