<?xml version="1.0" encoding="utf-8"?>
<!-- Generator: Adobe Illustrator 19.0.0, SVG Export Plug-In . SVG Version: 6.00 Build 0)  -->
<svg version="1.1" id="Capa_1" xmlns="http://www.w3.org/2000/svg" xmlns:xlink="http://www.w3.org/1999/xlink" x="0px" y="0px"
	 viewBox="0 0 100 100" style="enable-background:new 0 0 100 100;" xml:space="preserve">
<style type="text/css">
	.st0{fill:#FFFFFF;}
	.st1{clip-path:url(#XMLID_91_);}
	.st2{fill:#B3B149;}
	.st3{fill:#E48C3B;}
	.st4{fill:#383C4E;}
	.st5{clip-path:url(#XMLID_92_);}
	.st6{fill:#14AFFF;}
	.st7{fill:#FFCDA9;}
	.st8{fill:#131637;}
	.st9{fill:#FF907D;}
	.st10{fill:#000F1F;}
	.st11{fill:#003591;}
	.st12{fill:#002267;}
	.st13{fill:#3BFAFF;}
	.st14{fill:#24E9FF;}
	.st15{fill:#001F78;}
	.st16{fill:#FFD4A0;}
	.st17{clip-path:url(#XMLID_93_);}
	.st18{clip-path:url(#XMLID_94_);}
</style>
<g id="XMLID_89_">
	<circle id="XMLID_626_" class="st0" cx="50" cy="50.1" r="49"/>
	<g id="XMLID_87_">
		<g id="XMLID_88_">
			<defs>
				<circle id="XMLID_107_" cx="50" cy="50.1" r="49"/>
			</defs>
			<clipPath id="XMLID_91_">
				<use xlink:href="#XMLID_107_"  style="overflow:visible;"/>
			</clipPath>
			<g id="XMLID_1468_" class="st1">
				<g id="XMLID_1483_">
					<g id="XMLID_1484_">
						<path id="XMLID_616_" class="st2" d="M25.1,29.7c0.8-1.3,2.4-2.1,4-2.3c1.6-0.2,3.2,0.1,4.8,0.4c-0.4,1.1-1.6,1.8-2.6,2.2
							c-2,0.7-4.2,0.7-6.2,0"/>
					</g>
				</g>
				<g id="XMLID_1480_">
					<g id="XMLID_1481_">
						<path id="XMLID_615_" class="st2" d="M24.8,29.9c0.4-1.5,0.6-3.1,0.4-4.7c-0.3-1.6-1.1-3-2.3-4c-1.2,1.3-1.7,3.2-1.3,5
							c0.4,1.8,1.7,3.2,3.4,3.9"/>
					</g>
				</g>
				<g id="XMLID_1477_">
					<g id="XMLID_1478_">
						<path id="XMLID_614_" class="st3" d="M33.5,50.5c3.7-4.3,3.5-12.6-1.3-16.1c-1.5-1.1-3.2-1.8-5-2.3c-3.9-1-8-0.4-11.1,2.4
							c-1.9,1.8-3.1,4.2-3.7,6.7c-0.3,1.2-0.4,2.4-0.3,3.6c0.4,4.1,3.9,7.3,7.8,8.7C24.6,55.1,30.3,54.2,33.5,50.5z"/>
					</g>
				</g>
				<g id="XMLID_1473_">
					<g id="XMLID_1474_">
						<g id="XMLID_1475_">
							<path id="XMLID_613_" class="st4" d="M23.8,35.7c0.1,0.1,0.3,0.1,0.4,0.1c0.3-4.3,1.6-8.5,3.9-12.1c0.2-0.4-0.4-0.6-0.6-0.3
								c-2.3,3.7-3.6,7.9-3.9,12.3C23.6,35.7,23.7,35.7,23.8,35.7z"/>
						</g>
					</g>
				</g>
				<g id="XMLID_1469_">
					<g id="XMLID_1470_">
						<g id="XMLID_1471_">
							<path id="XMLID_612_" class="st4" d="M19.9,35.2c2.8,1.3,6.1,1.3,8.8-0.1c0.4-0.2,0-0.7-0.4-0.6c-2.6,1.3-5.6,1.4-8.2,0.1
								C19.8,34.5,19.5,35,19.9,35.2L19.9,35.2z"/>
						</g>
					</g>
				</g>
			</g>
		</g>
	</g>
	<g id="XMLID_36_">
		<defs>
			<circle id="XMLID_86_" cx="50" cy="50.1" r="49"/>
		</defs>
		<clipPath id="XMLID_92_">
			<use xlink:href="#XMLID_86_"  style="overflow:visible;"/>
		</clipPath>
		<g id="XMLID_1437_" class="st5">
			<g id="XMLID_1466_">
				<path id="XMLID_611_" class="st6" d="M54.8,80.4c-0.8-4.2-8.2-9.2-16.6,2.3c-10.6,14.5-24,32.9-56.1,29.4l-2.5,6.6
					c0,0,35.7,15.7,65.2-16.8C48.4,97.8,56.5,88.6,54.8,80.4z"/>
			</g>
			<g id="XMLID_1441_">
				<g id="XMLID_1442_">
					<g id="XMLID_1443_">
						<g id="XMLID_1447_">
							<g id="XMLID_1461_">
								<path id="XMLID_610_" class="st7" d="M50.4,34c0,0-6.4,10.1-8.5,25c0,0,5.1,4.2,15.7,4.2L55.1,76l18.1-3.1l-3-12.7l-3-0.6
									l2-4c0,0,4.2-0.3,5.7-4.7c1.5-4.4-3.5-3.3-4.7-2.7L68.6,51c0,0,0.5-6.2,4.2-7.8L71.6,37C71.4,37,61.8,39.1,50.4,34z"/>
								<path id="XMLID_609_" class="st8" d="M67.3,59.6l3,0.6v3.2c0,0,1.9-0.8,3.1-3.7c0,0,14.7-3.4,11.2-21c0,0,2.7-11.4-5.7-16.2
									S57.5,21.7,49.4,16c0,0-9,4.3-3.8,12.6l-3.7,0.2c0,0,6.4,9.2,16.7,7.8l-3.1,3c0,0,7.8,1.9,15.9-2.7l1.3,6.1
									c0,0-3.9,1.1-4.2,7.8l1.8-2.7c0,0,2.8-1.5,4.3,0.6c1.5,2-1.5,6-5.3,6.8L67.3,59.6z"/>
								<polygon id="XMLID_608_" class="st9" points="53.2,41.3 53.2,49.2 49.4,49.2 								"/>
								<path id="XMLID_607_" class="st0" d="M45.6,51.5c0.6,3.4,3.5,6,7.1,6s6.5-2.6,7.1-6H45.6z"/>
							</g>
							<polygon id="XMLID_606_" class="st10" points="45.4,303.4 45.4,308.8 23,308.8 38.2,303.4 							"/>
							<polygon id="XMLID_605_" class="st10" points="98.9,303.4 98.9,308.8 85.4,315 79.3,315 90.6,303.4 							"/>
							<path id="XMLID_604_" class="st11" d="M38.2,159.1v144.3h7.2c0,0,12.1-33.6,10.1-66.8l8.2-50l26.9,116.8h8.2
								c0,0,7.1-43.1-2.9-69.2l-3.9-75L38.2,159.1L38.2,159.1z"/>
							<path id="XMLID_603_" class="st12" d="M38.2,159.1c0,0,13.2,10.3,54.4,9l-0.5-9L61,153.3"/>
							<polygon id="XMLID_602_" class="st12" points="63.7,186.5 54.5,168.2 55.5,236.6 							"/>
							<path id="XMLID_601_" class="st13" d="M92.1,159.1c0,0-29.5,8-53.9,0c0,0,3.1-51.4,4.5-74.8C43.1,78,48.4,73,54.8,73
								l20.9-0.4c0.5,0,3.9,1.1,5.8,3.2c3.4,3.9,6.1,7.6,6.5,12.7l5.1,71.6C92.1,159.1,92.1,159.1,92.1,159.1z"/>
							<path id="XMLID_600_" class="st14" d="M38.9,146.7c24.9-14.2,28.4-36.7,31.4-54.9c2.2-13.3,9.3-14.9,13.6-13
								c2.2,2.9,3.7,5.9,4,9.7l1,13.4c-0.5,2.5-1.1,4.6-1.5,6.3c-9.4,35.2-35.2,46.6-49.1,50.2C38.4,156.8,38.6,152.5,38.9,146.7z"
								/>
							<rect id="XMLID_599_" x="44.6" y="90.9" class="st6" width="11.1" height="3.8"/>
							<path id="XMLID_598_" class="st14" d="M60.4,78c0,0,9.8,32.3,3.4,72.1l-10.2,7.8L46,150c0,0,17.6-45.5,12.1-72.2L60.4,78z"/>
							<path id="XMLID_597_" class="st15" d="M60.4,78c0,0,9.2,31.7,2,70.7l-10.4,7.6l-7.4-7.6c0,0,18.5-44.7,13.5-70.9L60.4,78z"/>
							<path id="XMLID_596_" class="st11" d="M58.2,78.9c1.1,1.1,3,1.1,4.1,0l5.1-5.1L59.9,73c-0.3-0.1-0.8,0.5-1.1,0.5l-4,2.1
								L58.2,78.9z"/>
							<path id="XMLID_595_" class="st6" d="M59.9,73l-6.7,6.8c0,0-1.8-6.3,3.2-10.5C56.4,69.2,57.1,72.3,59.9,73z"/>
							<path id="XMLID_594_" class="st6" d="M59.9,73c0,0,8.5-0.5,12.1-5.1c0,0,2.7,1.9,4.5,5.1c0,0-2.9,7.7-11.6,7.1L59.9,73z"/>
						</g>
						<path id="XMLID_593_" class="st6" d="M86.3,80.8c-2.7-4.2-12.6-6.7-17.1,9.2c-5.7,20.1-12.7,45.5-48.9,54.8v8.2
							c0,0,45.2,2.5,64-44.8C86.5,102.3,91.5,89.1,86.3,80.8z"/>
						<path id="XMLID_592_" class="st7" d="M16.9,153.1c-1.5,0.1-3.3,0-5.2-0.4c-6.3-1.3-10.4-5.3-12.2-7.3c0.7-0.5,1.6-0.9,2.5-1.1
							c4.4-1.1,8.2,2,8.9,2.5c2-0.7,4.1-1.5,6.1-2.2L16.9,153.1L16.9,153.1z"/>
						<rect id="XMLID_591_" x="16.9" y="144.5" class="st13" width="4.7" height="8.7"/>
					</g>
				</g>
			</g>
			<g id="XMLID_1438_">
				<path id="XMLID_590_" class="st16" d="M-33.3,106c0.3,0.4,0.7,0.8,1.3,1.2c1.7,1.1,3.5,0.8,3.6,1.4c0,0.1-0.1,0.4-0.6,0.7
					c0.1,1,0.1,2,0.1,3.2c-0.1,1.9-0.4,3.6-0.7,5c0.1,0.1,0.4,0.2,0.6,0.4c0.7,0.3,1.4,0.4,2.6,0.3s1.1-0.1,3.2-0.4
					c1.4-0.1,2-0.2,2.5-0.8c0.2-0.2,0.3-0.4,0.4-0.8c0.4-1.2,0.6-3-0.2-4.9c-0.4-1.1-2.5-5.4-7.1-6.3
					C-30.1,104.5-32.3,105.5-33.3,106z"/>
				
					<rect id="XMLID_589_" x="-21.8" y="111.1" transform="matrix(0.9361 0.3517 -0.3517 0.9361 39.1377 14.3087)" class="st13" width="4" height="7.5"/>
			</g>
		</g>
	</g>
	<g id="XMLID_30_">
		<g id="XMLID_31_">
			<defs>
				<circle id="XMLID_34_" cx="50" cy="50.1" r="49"/>
			</defs>
			<clipPath id="XMLID_93_">
				<use xlink:href="#XMLID_34_"  style="overflow:visible;"/>
			</clipPath>
			<g id="XMLID_1435_" class="st17">
				<path id="XMLID_588_" class="st6" d="M56.8,137.5c4.2-0.8,9.2-8.2-2.3-16.6c-14.5-10.6-32.9-24-29.4-56.1l-6.6-2.5
					c0,0-15.7,35.7,16.8,65.2C39.4,131.1,48.6,139.2,56.8,137.5z"/>
			</g>
		</g>
	</g>
	<g id="XMLID_24_">
		<g id="XMLID_25_">
			<defs>
				<circle id="XMLID_29_" cx="50" cy="50.1" r="49"/>
			</defs>
			<clipPath id="XMLID_94_">
				<use xlink:href="#XMLID_29_"  style="overflow:visible;"/>
			</clipPath>
			<g id="XMLID_1432_" class="st18">
				<path id="XMLID_587_" class="st16" d="M31.2,49.5c-0.4,0.3-0.8,0.7-1.2,1.3c-1.1,1.7-0.8,3.5-1.4,3.6c-0.1,0-0.4-0.1-0.7-0.6
					c-1,0.1-2,0.1-3.2,0.1c-1.9-0.1-3.6-0.4-5-0.7c-0.1,0.1-0.2,0.4-0.4,0.6c-0.3,0.7-0.4,1.4-0.3,2.6c0.1,1.2,0.1,1.1,0.4,3.2
					c0.1,1.4,0.2,2,0.8,2.5c0.2,0.2,0.4,0.3,0.8,0.4c1.2,0.4,3,0.6,4.9-0.2c1.1-0.4,5.4-2.5,6.3-7.1C32.6,52.6,31.7,50.4,31.2,49.5z
					"/>
				
					<rect id="XMLID_586_" x="20.3" y="59.1" transform="matrix(-0.3511 0.9363 -0.9363 -0.3511 88.9879 63.9391)" class="st13" width="4" height="7.5"/>
			</g>
		</g>
	</g>
</g>
</svg>
