<?xml version="1.0" encoding="utf-8"?>
<!-- Generator: Adobe Illustrator 23.0.4, SVG Export Plug-In . SVG Version: 6.00 Build 0)  -->
<svg version="1.1" id="Capa_1" xmlns="http://www.w3.org/2000/svg" xmlns:xlink="http://www.w3.org/1999/xlink" x="0px" y="0px"
	 viewBox="0 0 289.1 219.3" style="enable-background:new 0 0 289.1 219.3;" xml:space="preserve">
<style type="text/css">
	.st0{opacity:0.38;fill:#00B96C;}
	.st1{opacity:0.28;fill:#00B96C;}
	.st2{fill:#1DC778;}
	.st3{fill:#00B96C;}
	.st4{opacity:0.5;fill:#FFFFFF;enable-background:new    ;}
	.st5{opacity:0.1;enable-background:new    ;}
	.st6{fill:#FFD4B8;}
	.st7{fill:#BCBCBC;}
	.st8{fill:#4A5058;}
	.st9{opacity:0.1;fill:#513130;enable-background:new    ;}
	.st10{opacity:0.1;}
	.st11{fill:#513130;}
	.st12{opacity:0.45;fill:#037742;enable-background:new    ;}
	.st13{opacity:0.43;}
	.st14{fill:#037742;}
	.st15{fill:#7EC66A;}
	.st16{fill:#5AAA4F;}
	.st17{fill:#FFCD00;}
	.st18{fill:#FFB000;}
	.st19{fill:#92DD7A;}
	.st20{fill:#FFDE55;}
	.st21{fill:#FFEB99;}
	.st22{fill:#6BB48C;}
	.st23{fill:#8CD4A2;}
	.st24{fill:#EA5E57;}
	.st25{fill:#F298B8;}
	.st26{fill:#495059;}
	.st27{fill:#D65B5B;}
	.st28{fill:#FF737D;}
	.st29{fill:#F46262;}
	.st30{fill:#FF929F;}
	.st31{fill:#D7F3FF;}
	.st32{fill:#57565C;}
</style>
<title>Repartidor Coco</title>
<circle class="st0" cx="48.5" cy="182.1" r="4"/>
<circle class="st0" cx="119.9" cy="146.2" r="4"/>
<path class="st1" d="M171.6,140.6l-11.8-8.8l-9.8-29.3c-1.6-4.9-6.2-8.2-11.4-8.2h-26.2v-8c0-6.6-5.4-12-12-12H12.5
	c-6.6,0-12,5.4-12,12v87.9c0,6.6,5.4,12,12,12h16.4c0.6,2.9,1.9,5.6,3.7,8H16.5c-2.2,0-4,1.8-4,4c0,2.2,1.8,4,4,4h32
	c9.5,0,17.7-6.7,19.6-16h52.8c0.6,2.9,1.9,5.6,3.7,8h-8.1c-2.2,0-4,1.8-4,4c0,2.2,1.8,4,4,4h24c9.5,0,17.7-6.7,19.6-16h4.4
	c6.6,0,12-5.4,12-12v-24C176.4,146.4,174.6,142.8,171.6,140.6z M48.5,194.1c-6.6,0-12-5.4-12-12s5.4-12,12-12s12,5.4,12,12
	S55.1,194.1,48.5,194.1z M68,178.1c-2.2-10.8-12.8-17.8-23.7-15.5c-7.8,1.6-13.9,7.7-15.5,15.5H12.5c-2.2,0-4-1.8-4-4v-20h95.9
	l0.1,24H68z M8.5,146.1V86.2c0-2.2,1.8-4,4-4h87.9c2.2,0,4,1.8,4,4l0.1,59.9H8.5z M112.5,102.1h26.2c1.7,0,3.3,1.1,3.8,2.7l8.4,25.2
	h-8l1.1-2.2c1.1-1.9,0.4-4.4-1.6-5.5s-4.4-0.4-5.4,1.5c-0.1,0.1-0.1,0.2-0.2,0.3l-2.9,5.8h-21.6L112.5,102.1z M140.5,195
	c-7,0-12.7-5.7-12.7-12.7c0-7,5.7-12.7,12.7-12.7c7,0,12.7,5.7,12.7,12.7C153.2,189.3,147.5,195,140.5,195z M164.5,178h-4.4
	c-2.2-10.8-12.8-17.8-23.7-15.5c-7.8,1.6-13.9,7.7-15.5,15.5h-8.4v-40h42.5l11.7,8.9c1,0.8,1.6,2,1.6,3.2l0.1,23.9
	C168.5,176.3,166.7,178,164.5,178z M140.4,178.2c-2.2,0-4,1.8-4,4c0,2.2,1.8,4,4,4c2.2,0,4-1.8,4-4
	C144.4,179.9,142.6,178.2,140.4,178.2z"/>
<path id="Trazado_1110" class="st2" d="M207.4,145L207.4,145c-24,0-43.4,19.4-43.4,43.4l0,0v29h86.8v-29
	C250.8,164.4,231.4,145,207.4,145z"/>
<g id="Grupo_240">
	<path id="Trazado_1111" class="st3" d="M179.7,196.7c-0.9,0-1.7-0.4-2.3-1.1l-4-5.3c-1-1.3-0.7-3.1,0.5-4c1.3-1,3.1-0.7,4,0.5
		l4,5.3c1,1.3,0.7,3.1-0.6,4C180.9,196.5,180.3,196.7,179.7,196.7L179.7,196.7z"/>
	<path id="Trazado_1112" class="st3" d="M189.6,211.8c-1.6,0-2.9-1.3-2.9-2.9l0,0c0-0.9,0.5-1.8,1.2-2.4l3.4-2.4
		c1.3-1,3.1-0.7,4.1,0.6s0.7,3.1-0.6,4.1c-0.1,0.1-0.1,0.1-0.2,0.1l0,0l-3.4,2.4C190.8,211.6,190.2,211.8,189.6,211.8z"/>
	<path id="Trazado_1113" class="st3" d="M216.5,201.7c-1.3,0-2.4-0.9-2.8-2.1l-1.3-4.5c-0.6-1.5,0.2-3.1,1.7-3.7s3.1,0.2,3.7,1.7
		c0,0.1,0,0.1,0.1,0.2c0,0.1,0.1,0.2,0.1,0.3l0,0l1.3,4.5c0.4,1.5-0.5,3.1-2,3.5c0,0,0,0,0,0C217,201.7,216.7,201.7,216.5,201.7
		L216.5,201.7z"/>
	<path id="Trazado_1114" class="st3" d="M236.6,208.8c-1.6,0-2.9-1.3-2.9-2.9c0-0.4,0.1-0.8,0.2-1.1l2.4-5.3c0.7-1.4,2.4-2,3.8-1.3
		c1.3,0.6,1.9,2.2,1.4,3.5v0.1l-2.4,5.3C238.8,208.2,237.8,208.8,236.6,208.8z"/>
	<path id="Trazado_1115" class="st3" d="M229.6,184.4c-0.5,0-0.9-0.1-1.4-0.4l-6-3.3c-1.4-0.7-1.9-2.5-1.2-3.9s2.5-1.9,3.9-1.2h0.1
		l6,3.3c1.4,0.8,1.9,2.5,1.1,3.9C231.6,183.8,230.7,184.4,229.6,184.4L229.6,184.4z"/>
	<path id="Trazado_1116" class="st3" d="M191,184.4c-1.6,0-2.9-1.3-2.9-2.9c0-0.7,0.3-1.5,0.8-2l3-3.2c1.1-1.1,2.9-1.2,4.1-0.1
		s1.2,2.9,0.1,4.1l0,0l-3,3.2C192.6,184,191.8,184.4,191,184.4z"/>
</g>
<path id="Trazado_1117" class="st4" d="M207.4,145L207.4,145c-13.3,0-25.9,6.1-34.1,16.5c21.1,12.1,47,12.1,68.1,0
	C233.3,151.1,220.7,145,207.4,145z"/>
<path id="Trazado_1118" class="st5" d="M222.8,150.1c-0.6-1.4-2.3-2.1-3.8-1.5c-1.4,0.6-2.1,2.3-1.5,3.8l0.1,0.1l7.2,15.9
	c1.9-0.5,3.7-1.1,5.5-1.7L222.8,150.1z M195.9,148.7c-1.4-0.6-3.1,0-3.8,1.4l0,0l-7.6,16.5c1.8,0.7,3.7,1.2,5.5,1.7l7.3-15.9
	C198,151.1,197.4,149.4,195.9,148.7C195.9,148.7,195.9,148.7,195.9,148.7L195.9,148.7L195.9,148.7z M207.4,148.1
	c-1.6,0-2.9,1.3-2.9,2.8c0,0,0,0,0,0l0,0v19.5c0.9,0,1.9,0.1,2.9,0.1s1.9,0,2.9-0.1V151C210.3,149.4,209,148.1,207.4,148.1
	L207.4,148.1L207.4,148.1L207.4,148.1z"/>
<path id="Trazado_1119" class="st5" d="M207.4,145L207.4,145c-11.4,0-22.4,4.5-30.5,12.6c19.2,9.6,41.8,9.6,61.1,0
	C229.8,149.5,218.9,145,207.4,145z"/>
<g id="Grupo_241">
	<circle id="Elipse_36" class="st6" cx="139.1" cy="90.3" r="12"/>
	<circle id="Elipse_38" class="st6" cx="207.4" cy="90.2" r="68.3"/>
</g>
<circle id="Elipse_36-2" class="st6" cx="277.1" cy="90.3" r="12"/>
<g id="Grupo_242">
	<path id="Trazado_1120" class="st7" d="M149.6,53.8c-6.9,10.9-10.5,23.5-10.5,36.4c0,1.2,0,2.4,0.1,3.6c11.8,0,21.3-9.7,21.3-21.5
		C160.5,64.7,156.3,57.6,149.6,53.8L149.6,53.8z"/>
	<path id="Trazado_1121" class="st7" d="M265.2,53.8c6.9,10.9,10.5,23.5,10.5,36.4c0,1.2,0,2.4-0.1,3.6c-11.8,0-21.3-9.7-21.3-21.5
		C254.4,64.7,258.6,57.6,265.2,53.8L265.2,53.8z"/>
</g>
<g id="Grupo_243">
	<path id="Trazado_1122" class="st8" d="M172.8,88.4c-1.6,0-2.9-1.3-2.9-2.8c0,0,0,0,0,0l0,0v-6.8c0.1-1.6,1.5-2.8,3-2.7
		c1.5,0.1,2.6,1.2,2.7,2.7v6.8C175.6,87.1,174.3,88.4,172.8,88.4L172.8,88.4L172.8,88.4z"/>
	<path id="Trazado_1123" class="st8" d="M242.1,88.4c-1.6,0-2.9-1.3-2.9-2.8c0,0,0,0,0,0l0,0l0,0v-6.8c0.1-1.6,1.5-2.8,3-2.7
		c1.5,0.1,2.6,1.2,2.7,2.7v6.8C244.9,87.1,243.6,88.4,242.1,88.4C242.1,88.4,242.1,88.4,242.1,88.4L242.1,88.4z"/>
	<path id="Trazado_1124" class="st8" d="M207.4,107.2c-3.5,0-6.9-1.4-9.3-4c-1-1.2-0.9-3,0.4-4c1.1-0.9,2.8-0.9,3.8,0.1
		c2.6,2.8,7.1,3,9.9,0.4h0.1l0.3-0.3c1.1-1.2,2.9-1.2,4-0.1s1.2,2.9,0.1,4l0,0C214.3,105.7,210.9,107.2,207.4,107.2z"/>
</g>
<g id="Grupo_245">
	<path id="Trazado_1125" class="st9" d="M217.5,149.8c-37.7,0-68.3-30.6-68.3-68.3c0-17.7,6.9-34.7,19.2-47.5
		c-30.9,21.6-38.4,64.2-16.8,95.1c21.5,30.8,63.9,38.4,94.8,17c3.6-2.5,7-5.4,10.1-8.6C245.1,145.6,231.5,149.9,217.5,149.8z"/>
	<g id="Grupo_244" class="st10">
		<path id="Trazado_1126" class="st11" d="M230.1,62.2c-3.4,0-6.8-0.5-10.1-1.4c-8.2-2.1-16.8-2.1-25,0c-3.3,0.9-6.7,1.3-10.2,1.4
			c-1.6,0-2.9-1.3-2.9-2.9s1.3-2.9,2.9-2.9c3-0.1,6-0.5,8.9-1.2c9-2.3,18.5-2.3,27.5,0c2.9,0.8,5.9,1.2,8.9,1.2
			c1.6,0,2.9,1.2,2.9,2.8C233,60.9,231.7,62.2,230.1,62.2L230.1,62.2z"/>
		<path id="Trazado_1127" class="st11" d="M225.1,49.8h-0.4c-1.7-0.3-3.2-0.6-4.7-1c-8.2-2.1-16.8-2.1-25,0c-1.5,0.3-3.1,0.7-4.7,1
			c-1.6,0.2-3-0.8-3.3-2.4c-0.2-1.6,0.8-3,2.4-3.3l0,0c1.5-0.2,2.9-0.5,4.4-0.9c9-2.3,18.5-2.3,27.5,0c1.5,0.3,2.9,0.7,4.3,0.9
			c1.6,0.2,2.6,1.7,2.4,3.2C227.7,48.8,226.5,49.9,225.1,49.8L225.1,49.8z"/>
	</g>
</g>
<ellipse class="st12" cx="206.7" cy="2.7" rx="5.2" ry="2.7"/>
<path class="st2" d="M222,2.6h-28.2c-23,0-41.8,14.1-41.8,31.4v14.2c0,1.8,0.8,3.4,2,4.7c1.8-1.1,3.7-2.1,5.6-3
	c0.4,0.9,0.9,1.7,1.5,2.5c14.9-6.8,52.4-19.1,93-0.1c0.5-0.7,0.9-1.4,1.3-2.2c1.5,0.7,3,1.5,4.5,2.3c1-1.2,1.5-2.7,1.5-4.2V32.1
	C261.4,15.9,243.7,2.6,222,2.6z"/>
<g class="st13">
	<polygon class="st14" points="159.6,15.6 159.6,47.1 156.8,47.1 156.8,18.9 	"/>
</g>
<g class="st13">
	<polygon class="st14" points="257.5,19.3 257.5,45.8 257.5,47.1 254.7,47.1 254.7,44.5 254.7,15.7 	"/>
</g>
<path class="st3" d="M261.4,57.1c-1.2,0-2.3-0.3-3.4-0.8l-1.4-0.8c-1.4-0.8-2.9-1.5-4.3-2.2l-0.9-0.5l-0.4-0.2
	c-39-18.2-74.3-5.9-87.8,0.2l-0.6,0.3h-0.1c-1.6,0.8-3.3,1.6-4.8,2.6c-1.2,1-2.7,1.5-4.2,1.4c-3.1,0-5.6-1.9-5.6-4.2
	c0-2,1.7-3.1,2.4-3.5c2-1.3,4.1-2.4,6.3-3.3c0.3-0.1,0.6-0.3,0.9-0.4c12.5-5.6,25.7-9.1,39.3-10.4c20.6-2.1,41.5,1.5,60.3,10.3
	l0.4,0.2l1,0.5c1.6,0.8,3.2,1.6,4.7,2.4l1.6,0.9c2.5,1.4,3,4,1.1,5.9C264.7,56.5,263.1,57.1,261.4,57.1z M159.1,53
	c0,0.9-0.4,1.7-1,2.4C158.8,54.7,159.1,53.9,159.1,53z"/>
<g id="_047-lettuce">
	<path id="Trazado_1512" class="st15" d="M226.2,144.9c-0.5-0.8-0.5-1.9-0.1-2.7c2-4.4,0.1-9.6-4.3-11.6c-2.5-1.2-5.5-1.1-7.9,0.3
		c-0.8,0.5-1.9,0.5-2.7,0.1c-2.9-1.3-6.2-0.6-8.4,1.7c-1.6,1.7-2.3,4.1-1.8,6.4c0,0.2,1.8,10.3-3.2,18.3c-0.5,0.9-0.4,2,0.4,2.7l0,0
		c0.8,0.7,1.9,0.8,2.7,0.1c7.6-5.5,17.7-4.6,18-4.5c2.3,0.3,4.7-0.5,6.2-2.3C227.3,151,227.7,147.6,226.2,144.9z"/>
	<path id="Trazado_1513" class="st16" d="M218.8,129.8c-1.7-0.1-3.4,0.3-4.9,1.1c-0.8,0.5-1.9,0.5-2.7,0.1c-2.9-1.3-6.2-0.6-8.4,1.7
		c-1.6,1.7-2.2,4.1-1.8,6.4c0,0.2,1.8,10.3-3.2,18.3c-0.5,0.9-0.4,2,0.4,2.7l0,0c0.8,0.7,1.9,0.8,2.7,0.1c1.9-1.4,4-2.4,6.3-3.1
		c2.2-2.9,5.1-5.4,8.3-7.2c1.1-0.5,2.1-1.1,2.9-1.9c2-1.8,3.4-4.2,3.9-6.9C223.2,136.8,221.8,132.6,218.8,129.8z"/>
	<path id="Trazado_1514" class="st17" d="M203.8,153.7c-0.2-0.3-0.1-0.7,0.2-0.9c1.3-0.8,2.7-1.5,4.2-1.9c3.3-1.2,6.8-1.5,10.3-1.1
		c0.3,0.1,0.5,0.4,0.5,0.8c-0.1,0.3-0.3,0.5-0.6,0.5c-4.7-0.6-9.5,0.4-13.5,2.8C204.5,154,204.1,154,203.8,153.7
		C203.9,153.7,203.9,153.7,203.8,153.7L203.8,153.7L203.8,153.7z"/>
	<g id="Grupo_287">
		<path id="Trazado_1515" class="st18" d="M204.8,153.9c2.8-1.6,5.8-2.6,9-2.9c0.9-0.6,1.6-1,1.8-1.1l0.5-0.2
			c-2.7,0-5.3,0.4-7.8,1.3c-1.5,0.5-2.9,1.1-4.2,1.9c-0.3,0.2-0.4,0.6-0.2,0.9l0,0C204.1,154,204.5,154,204.8,153.9z"/>
		<path id="Trazado_1516" class="st18" d="M210.9,146c-0.1-0.3,0-0.7,0.3-0.8c0,0,0,0,0,0l0,0c2.6-1,5.4-1.3,8.2-0.8
			c0.3,0.1,0.5,0.4,0.5,0.8c-0.1,0.3-0.3,0.5-0.6,0.5c-1.8-0.3-3.7-0.2-5.5,0.1c-0.7,0.1-1.4,0.3-2,0.6
			C211.4,146.4,211,146.3,210.9,146z"/>
	</g>
	<path id="Trazado_1517" class="st17" d="M217.2,139.4c-1-0.9-11.6,8.8-17.9,14.8c-0.4,1.1-1,2.1-1.6,3.1c-0.5,0.9-0.4,2,0.4,2.7
		l0,0c0.8,0.7,1.9,0.8,2.7,0.1c0.9-0.7,2-1.3,3-1.8C209.4,151.6,218.2,140.4,217.2,139.4z"/>
	<path id="Trazado_1518" class="st19" d="M213.9,132.3c-0.8-0.5-1.4-1.3-1.5-2.3c-0.6-4.8-5-8.2-9.8-7.5c-2.8,0.4-5.2,2-6.6,4.5
		c-0.5,0.8-1.3,1.4-2.2,1.6c-3.1,0.4-5.6,2.8-6.2,5.9c-0.5,2.3,0.2,4.7,1.9,6.4c0.2,0.2,6.9,7.8,7,17.2c0,1,0.7,1.9,1.7,2.1l0,0
		c1,0.2,2-0.4,2.4-1.3c3.5-8.7,12.6-13.3,12.8-13.4c2.1-1,3.7-2.9,4.1-5.2C218.1,137,216.6,133.9,213.9,132.3z"/>
	<path id="Trazado_1519" class="st15" d="M200.9,131.1c0.7-5.2,4.7-6.8,7.5-7.3c-4-2.6-9.4-1.5-12.1,2.6c0,0,0,0,0,0l0,0l-0.3,0.5
		c-0.5,0.8-1.3,1.4-2.2,1.6c-3.1,0.4-5.6,2.8-6.2,5.9c-0.5,2.3,0.2,4.7,1.9,6.4c0.2,0.2,6.9,7.8,7,17.2c0,1.2,1,2.1,2.2,2.1
		c0.9,0,1.6-0.5,2-1.3c0.3-0.8,0.7-1.6,1.2-2.4C191.8,141.1,199.9,138.4,200.9,131.1z"/>
	<g id="Grupo_288">
		<path id="Trazado_1520" class="st20" d="M210.8,140.9c-0.1-0.3-0.5-0.5-0.8-0.3c-3.2,1.5-6,3.6-8.1,6.4c-0.6,0.7-1.1,1.4-1.6,2.2
			c-0.2-0.9-0.4-1.7-0.6-2.6c-1-3.3-2.8-6.4-5.2-8.9c-0.2-0.3-0.6-0.3-0.9-0.1c-0.3,0.2-0.3,0.6-0.1,0.9c0,0,0.1,0.1,0.1,0.1l0,0
			c3.3,3.5,5.3,7.9,5.8,12.6c0,0.3,0.3,0.6,0.6,0.6c0.2,0,0.5-0.2,0.6-0.4c2.2-4.2,5.7-7.6,10-9.6
			C210.7,141.6,210.9,141.2,210.8,140.9L210.8,140.9z"/>
		<path id="Trazado_1521" class="st20" d="M208.6,135.9c-0.1-0.3-0.5-0.5-0.8-0.3c0,0,0,0,0,0l0,0c-2.2,0.9-4.1,2.2-5.8,3.8
			c-0.9-2.1-2.2-4-3.8-5.6c-0.2-0.2-0.6-0.3-0.9,0c-0.2,0.2-0.3,0.6,0,0.9l0,0c1.3,1.3,2.4,2.8,3.2,4.4c0.3,0.6,0.5,1.3,0.7,2
			c0.1,0.3,0.3,0.5,0.5,0.5c0.2,0,0.5-0.1,0.6-0.3l0,0c1.5-2,3.6-3.6,6-4.5C208.7,136.5,208.8,136.2,208.6,135.9L208.6,135.9z"/>
	</g>
	<g id="Grupo_289">
		<path id="Trazado_1522" class="st17" d="M197.1,141.1c-0.8-1.3-1.7-2.4-2.7-3.5c-0.3-0.2-0.7-0.2-0.9,0.1c-0.2,0.2-0.2,0.6,0,0.8
			l0,0c1.3,1.4,2.5,2.9,3.4,4.6C196.9,142.4,197,141.8,197.1,141.1z"/>
		<path id="Trazado_1523" class="st17" d="M197.3,133.7c-0.2,0.2-0.2,0.6,0,0.9l0,0c0.6,0.6,1.1,1.2,1.6,1.9
			c0.2-0.4,0.4-0.8,0.6-1.3c-0.4-0.5-0.9-1-1.4-1.5C198,133.5,197.6,133.5,197.3,133.7L197.3,133.7L197.3,133.7z"/>
	</g>
	<path id="Trazado_1524" class="st21" d="M203.4,132.5c-1.3-0.2-5.1,13.6-7.3,22c0.2,1.1,0.3,2.3,0.3,3.4c0,1,0.7,1.9,1.7,2.1l0,0
		c1,0.2,2-0.4,2.4-1.3c0.4-1.1,1-2.1,1.6-3.1C203.2,147,204.8,132.7,203.4,132.5z"/>
	<path id="Trazado_1525" class="st20" d="M198.2,160L198.2,160c1,0.2,2-0.4,2.4-1.3c0.3-0.8,0.7-1.6,1.2-2.4c-1.6-2.4-3-5-4-7.8
		c-0.6,2.1-1.1,4.2-1.6,6c0.2,1.1,0.3,2.3,0.3,3.4C196.5,158.9,197.2,159.8,198.2,160z"/>
</g>
<path id="Trazado_1532" class="st22" d="M190.9,144.4c-0.5,0-0.8-0.4-0.8-0.8v0l0,0c0-0.2,0.1-0.3,0.2-0.5l0.2-0.3
	c0.6-0.8,1.1-1.7,1.4-2.6c0.1-0.4,0.6-0.7,1-0.6c0.4,0.1,0.7,0.6,0.6,1l0,0c-0.3,1.2-0.9,2.2-1.6,3.2l-0.2,0.3
	C191.4,144.2,191.2,144.4,190.9,144.4z"/>
<path id="Trazado_1533" class="st5" d="M191.9,142.5c-0.1,0-0.2,0-0.3-0.1c0,0,0,0,0,0l0,0c-0.1-0.3-0.1-0.6-0.3-0.9
	c-0.2,0.4-0.5,0.9-0.8,1.3l-0.2,0.3c-0.3,0.4-0.2,0.9,0.2,1.1c0.4,0.3,0.9,0.2,1.1-0.1l0,0l0.2-0.3c0.4-0.4,0.7-0.9,0.9-1.4
	C192.4,142.4,192.2,142.5,191.9,142.5z"/>
<path id="Trazado_1534" class="st22" d="M184.5,143c-0.2,0-0.3,0.1-0.3,0.3c0,0,0,0,0,0l0,0c0,0.1,0,0.1,0.1,0.2
	c0.7,0.7,1.4,1.3,2.3,1.8c2.2,0.3,4.5,0.3,6.8,0c0.9-0.5,1.6-1.1,2.3-1.8c0.1-0.1,0.1-0.3,0-0.4c0,0,0,0,0,0l0,0
	c0-0.1-0.1-0.1-0.2-0.1c-1.4-0.2-2.8-0.1-4.1,0.2c-0.1,0-0.2,0-0.3-0.1c0,0,0,0,0,0l0,0c-0.2-0.7-0.5-1.4-0.8-2
	c-0.1-0.1-0.3-0.2-0.4-0.1c0,0,0,0,0,0l0,0l-0.1,0.1c-0.4,0.6-0.7,1.3-0.8,2c0,0.1-0.1,0.2-0.2,0.2l0,0
	C187.4,142.9,185.9,142.8,184.5,143z"/>
<path id="Trazado_1535" class="st23" d="M184.5,143c-0.2,0-0.3,0.1-0.3,0.3c0,0,0,0,0,0l0,0c0,0.1,0,0.1,0.1,0.2
	c0.7,0.7,1.4,1.3,2.3,1.8c2.2,0.3,4.5,0.3,6.8,0c0.9-0.5,1.6-1.1,2.3-1.8c0.1-0.1,0.1-0.3,0-0.4c0,0,0,0,0,0l0,0
	c0-0.1-0.1-0.1-0.2-0.1c-1.4-0.2-2.8-0.1-4.1,0.2c-0.1,0-0.2,0-0.3-0.1c0,0,0,0,0,0l0,0c-0.2-0.7-0.5-1.4-0.8-2
	c-0.1-0.1-0.3-0.2-0.4-0.1c0,0,0,0,0,0l0,0l-0.1,0.1c-0.4,0.6-0.7,1.3-0.8,2c0,0.1-0.1,0.2-0.2,0.2l0,0
	C187.4,142.9,185.9,142.8,184.5,143z"/>
<path id="Trazado_1536" class="st5" d="M194.9,144.2L194.9,144.2c-0.6-0.1-1.2-0.2-1.8-0.2c-0.6,0-1.1,0-1.6,0.1c-1,0.2-2,0.2-3,0
	c-0.6-0.2-1.3-0.7-1.1-1.2c-0.9-0.1-1.9-0.1-2.8,0c-0.2,0-0.3,0.1-0.3,0.3c0,0,0,0,0,0l0,0c0,0.1,0,0.1,0.1,0.2
	c0.7,0.7,1.4,1.3,2.3,1.8c2.2,0.3,4.5,0.3,6.8,0C194,144.9,194.5,144.6,194.9,144.2z"/>
<path id="Trazado_1537" class="st24" d="M193.2,144.8c-0.6,0-1.1,0-1.6,0.1c-1,0.2-2,0.2-3,0c-4.7-0.9-9.3,2.2-10.2,6.9
	c-0.9,4.7,2.2,9.3,6.9,10.2c1,0.2,2,0.2,3,0c1.1-0.2,2.3-0.2,3.4,0c4.7,0.8,9.2-2.4,10-7.1s-2.4-9.2-7.1-10
	C194.1,144.8,193.7,144.8,193.2,144.8z"/>
<g id="Grupo_292">
	<ellipse id="Elipse_88" class="st25" cx="185" cy="152.9" rx="1.9" ry="1.5"/>
	<ellipse id="Elipse_89" class="st25" cx="195.1" cy="152.9" rx="1.9" ry="1.5"/>
</g>
<g id="Grupo_293">
	<path id="Trazado_1538" class="st26" d="M186.9,151.7c-0.2,0-0.3-0.2-0.3-0.4c0-0.3-0.3-0.5-0.6-0.5c-0.3,0-0.5,0.2-0.5,0.5l0,0
		c0,0.2-0.2,0.3-0.4,0.3c-0.2,0-0.3-0.1-0.3-0.3l0,0c-0.1-0.7,0.4-1.3,1.1-1.4c0.7-0.1,1.3,0.4,1.4,1.1c0,0,0,0,0,0
		c0,0.1,0,0.1,0,0.2C187.3,151.5,187.1,151.7,186.9,151.7L186.9,151.7z"/>
	<path id="Trazado_1539" class="st26" d="M194.9,151.7c-0.2,0-0.4-0.2-0.4-0.3v0l0,0c0-0.3-0.2-0.5-0.5-0.5l0,0
		c-0.3,0-0.5,0.2-0.6,0.5c0,0.2-0.1,0.3-0.3,0.4c-0.2,0-0.3-0.1-0.4-0.3l0,0c-0.1-0.7,0.4-1.3,1.1-1.4c0.7-0.1,1.3,0.4,1.4,1.1
		c0,0,0,0,0,0c0,0.1,0,0.1,0,0.2C195.2,151.5,195.1,151.7,194.9,151.7L194.9,151.7z"/>
	<path id="Trazado_1540" class="st26" d="M190,153.1c-0.5,0-0.9-0.2-1.2-0.6c-0.1-0.1-0.1-0.4,0-0.5s0.4-0.1,0.5,0l0,0l0,0
		c0.3,0.4,0.9,0.4,1.2,0.1l0,0l0.1-0.1c0.1-0.2,0.3-0.2,0.5-0.1c0.2,0.1,0.2,0.3,0.1,0.5c0,0,0,0,0,0v0.1l0,0
		C190.9,152.9,190.5,153.1,190,153.1z"/>
</g>
<path id="Trazado_1541" class="st5" d="M188.5,145c-4.7-0.9-9.3,2.2-10.2,6.9c-0.9,4.7,2.2,9.3,6.9,10.2c1,0.2,2,0.2,3,0
	c1.1-0.2,2.3-0.2,3.4,0c2.4,0.4,4.9-0.2,6.9-1.8C177.6,160.9,184.3,146.9,188.5,145z"/>
<path id="Trazado_1532-2" class="st22" d="M206.6,150.1c-0.3-0.1-0.5-0.3-0.4-0.6c0-0.1,0.1-0.2,0.1-0.3l0.2-0.2
	c0.5-0.5,0.9-1,1.2-1.6c0.1-0.3,0.4-0.4,0.7-0.3c0.3,0.1,0.4,0.4,0.3,0.7l0,0c-0.3,0.7-0.8,1.4-1.4,1.9l-0.2,0.2
	C207,150.1,206.8,150.2,206.6,150.1z"/>
<path id="Trazado_1533-2" class="st5" d="M207.5,149c-0.1,0-0.2,0-0.2-0.1l0,0c0-0.2,0-0.4-0.1-0.6c-0.2,0.3-0.4,0.5-0.7,0.8
	l-0.2,0.2c-0.2,0.2-0.2,0.5,0,0.8l0,0c0.2,0.2,0.5,0.2,0.8,0c0,0,0,0,0,0l0,0l0.2-0.2c0.3-0.3,0.5-0.5,0.8-0.8
	C207.9,149,207.7,149,207.5,149z"/>
<path id="Trazado_1534-2" class="st22" d="M202.6,148.5c-0.1,0-0.2,0.1-0.2,0.2c0,0,0,0.1,0,0.1c0.4,0.5,0.8,1,1.3,1.4
	c0.7,0.4,1.4,0.6,2.2,0.5c0.7,0.3,1.5,0.4,2.3,0.2c0.6-0.2,1.2-0.5,1.7-0.9c0.1-0.1,0.1-0.2,0-0.3c0,0-0.1-0.1-0.1-0.1
	c-0.9-0.3-1.8-0.4-2.8-0.3c-0.1,0-0.2,0-0.2-0.1l0,0c0-0.5-0.2-1-0.3-1.4c0-0.1-0.2-0.2-0.3-0.1c0,0-0.1,0-0.1,0.1
	c-0.3,0.4-0.6,0.8-0.8,1.2c0,0.1-0.1,0.1-0.2,0.1l0,0C204.4,148.8,203.5,148.6,202.6,148.5z"/>
<path id="Trazado_1535-2" class="st23" d="M202.6,148.5c-0.1,0-0.2,0.1-0.2,0.2c0,0,0,0.1,0,0.1c0.4,0.5,0.8,1,1.3,1.4
	c0.7,0.4,1.4,0.6,2.2,0.5c0.7,0.3,1.5,0.4,2.3,0.2c0.6-0.2,1.2-0.5,1.7-0.9c0.1-0.1,0.1-0.2,0-0.3c0,0-0.1-0.1-0.1-0.1
	c-0.9-0.3-1.8-0.4-2.8-0.3c-0.1,0-0.2,0-0.2-0.1l0,0c0-0.5-0.2-1-0.3-1.4c0-0.1-0.2-0.2-0.3-0.1c0,0-0.1,0-0.1,0.1
	c-0.3,0.4-0.6,0.8-0.8,1.2c0,0.1-0.1,0.1-0.2,0.1l0,0C204.4,148.8,203.5,148.6,202.6,148.5z"/>
<path id="Trazado_1536-2" class="st5" d="M209.3,150.4L209.3,150.4c-0.4-0.1-0.8-0.2-1.1-0.3c-0.4-0.1-0.7-0.1-1.1-0.1
	c-0.7,0.1-1.4-0.1-2-0.3c-0.4-0.2-0.8-0.6-0.6-0.9c-0.6-0.2-1.2-0.2-1.9-0.3c-0.1,0-0.2,0.1-0.2,0.2c0,0,0,0,0,0l0,0
	c0,0,0,0.1,0,0.1c0.4,0.5,0.8,1,1.3,1.4c0.7,0.4,1.4,0.6,2.2,0.5c0.7,0.3,1.5,0.4,2.3,0.2C208.6,150.8,209,150.6,209.3,150.4z"/>
<path id="Trazado_1537-2" class="st24" d="M208.1,150.6c-0.4-0.1-0.7-0.1-1.1-0.1c-0.7,0-1.4-0.1-2-0.3c-3-1.1-6.4,0.5-7.5,3.5
	s0.5,6.4,3.5,7.5c0.6,0.2,1.3,0.3,2,0.3c0.8,0,1.5,0.1,2.2,0.4c3.1,1,6.3-0.7,7.3-3.8c1-3-0.7-6.3-3.7-7.3
	C208.7,150.8,208.4,150.7,208.1,150.6L208.1,150.6z"/>
<g id="Grupo_292-2">
	
		<ellipse id="Elipse_88-2" transform="matrix(0.1564 -0.9877 0.9877 0.1564 16.9627 330.194)" class="st25" cx="201.8" cy="155.2" rx="1" ry="1.2"/>
	
		<ellipse id="Elipse_89-2" transform="matrix(0.1564 -0.9877 0.9877 0.1564 21.5924 337.7351)" class="st25" cx="208.5" cy="156.2" rx="1" ry="1.2"/>
</g>
<g id="Grupo_293-2">
	<path id="Trazado_1538-2" class="st26" d="M203.2,154.5c-0.1,0-0.2-0.1-0.2-0.3l0,0c0-0.2-0.1-0.4-0.3-0.4c-0.2,0-0.4,0.1-0.4,0.3
		c0,0.1-0.2,0.2-0.3,0.2c-0.1,0-0.2-0.1-0.2-0.2c0.1-0.4,0.5-0.8,0.9-0.7c0,0,0,0,0,0l0,0c0.5,0.1,0.8,0.5,0.7,0.9c0,0,0,0,0,0.1
		C203.5,154.5,203.4,154.6,203.2,154.5L203.2,154.5z"/>
	<path id="Trazado_1539-2" class="st26" d="M208.5,155.4c-0.1,0-0.2-0.1-0.2-0.3c0-0.2-0.1-0.4-0.3-0.4c-0.2,0-0.4,0.1-0.4,0.3
		c0,0,0,0,0,0l0,0c0,0.1-0.1,0.2-0.3,0.2c-0.1,0-0.2-0.1-0.2-0.2l0,0c0.1-0.5,0.5-0.8,0.9-0.7s0.8,0.5,0.7,0.9l0,0l0,0
		C208.8,155.3,208.6,155.4,208.5,155.4L208.5,155.4L208.5,155.4z"/>
	<path id="Trazado_1540-2" class="st26" d="M205.1,155.8c-0.3-0.1-0.6-0.2-0.7-0.5c-0.1-0.1,0-0.3,0.1-0.3c0.1-0.1,0.2,0,0.3,0.1
		c0.1,0.1,0.3,0.3,0.4,0.3c0.2,0,0.4,0,0.5-0.1c0.1-0.1,0.3,0,0.3,0.1c0.1,0.1,0.1,0.2,0,0.3l0,0
		C205.8,155.8,205.4,155.9,205.1,155.8z"/>
</g>
<path id="Trazado_1541-2" class="st5" d="M205,150.2c-3-1.1-6.4,0.5-7.5,3.5s0.5,6.4,3.5,7.5c0.6,0.2,1.3,0.3,2,0.3
	c0.8,0,1.5,0.1,2.2,0.4c1.6,0.5,3.3,0.4,4.7-0.5C196.1,159.6,202,151.1,205,150.2z"/>
<g id="_048-salami">
	<path id="Trazado_1526" class="st27" d="M241.9,154.1l1.6-1.1c0.2-0.2,0.3-0.5,0.1-0.7c0-0.1-0.1-0.1-0.2-0.2l-1.7-0.9
		c-0.4-0.2-0.6-0.6-0.7-1l-0.1-0.8c-0.1-0.3-0.3-0.4-0.6-0.4c-0.1,0-0.2,0.1-0.3,0.2l-1.6,1.8l0.2,3.6l1.8,1.7
		c0.2,0.2,0.5,0.2,0.7,0c0.1-0.1,0.1-0.2,0.1-0.3l0.1-0.8C241.3,154.8,241.5,154.3,241.9,154.1z"/>
	<path id="Trazado_1527" class="st28" d="M232.1,161.1l-14.3,0.8L217,146l14.3-0.8c4.4-0.2,8.1,3.1,8.4,7.5l0,0
		C239.9,157.2,236.5,160.9,232.1,161.1L232.1,161.1z"/>
	<path id="Trazado_1528" class="st29" d="M231.3,145.2l-7.7,0.4c4.4-0.2,8.1,3.1,8.4,7.5l0,0c0.2,4.4-3.1,8.1-7.5,8.4l0,0l7.7-0.4
		c4.4-0.2,7.8-4,7.5-8.4l0,0C239.4,148.3,235.7,145,231.3,145.2z"/>
	
		<ellipse id="Elipse_83" transform="matrix(0.9986 -5.338169e-02 5.338169e-02 0.9986 -7.9088 11.8273)" class="st30" cx="217.4" cy="154" rx="5.2" ry="8"/>
	<g id="Grupo_290">
		
			<ellipse id="Elipse_84" transform="matrix(0.9986 -5.338169e-02 5.338169e-02 0.9986 -7.7033 11.8114)" class="st31" cx="217.3" cy="150.1" rx="0.9" ry="1.5"/>
		
			<ellipse id="Elipse_85" transform="matrix(0.9986 -5.338169e-02 5.338169e-02 0.9986 -8.1136 11.8443)" class="st31" cx="217.7" cy="157.8" rx="0.9" ry="1.5"/>
		
			<ellipse id="Elipse_86" transform="matrix(0.9986 -5.338169e-02 5.338169e-02 0.9986 -7.9192 11.6973)" class="st31" cx="215" cy="154.1" rx="0.9" ry="1.5"/>
		
			<ellipse id="Elipse_87" transform="matrix(0.9986 -5.338169e-02 5.338169e-02 0.9986 -7.8983 11.9579)" class="st31" cx="219.9" cy="153.8" rx="0.9" ry="1.5"/>
	</g>
	<g id="Grupo_291">
		<path id="Trazado_1529" class="st32" d="M236.3,153.5c-0.3,0-0.5-0.2-0.5-0.4l0,0l0,0v-0.8c0-0.3,0.2-0.5,0.5-0.5
			c0.3,0,0.5,0.2,0.5,0.4v0.7C236.8,153.3,236.6,153.5,236.3,153.5C236.3,153.5,236.3,153.5,236.3,153.5L236.3,153.5L236.3,153.5z"
			/>
		<path id="Trazado_1530" class="st32" d="M226.1,154.1c-0.3,0-0.5-0.2-0.5-0.4l0,0v-0.8c0-0.3,0.2-0.5,0.4-0.5l0,0
			c0.3,0,0.5,0.2,0.5,0.4v0.8C226.5,153.8,226.3,154.1,226.1,154.1L226.1,154.1z"/>
		<path id="Trazado_1531" class="st32" d="M231.2,154.3c-0.6,0-1.2-0.1-1.8-0.5c-0.2-0.2-0.3-0.5-0.1-0.7c0.1-0.2,0.4-0.3,0.6-0.1
			c0,0,0,0,0,0c0.7,0.5,1.7,0.4,2.3-0.1c0.2-0.1,0.5-0.1,0.7,0.1c0,0,0,0,0,0c0.1,0.2,0.1,0.4,0,0.6
			C232.5,154,231.9,154.3,231.2,154.3z"/>
	</g>
</g>
<path class="st20" d="M241.2,214c0,1.6-0.8,3.2-2.1,4.1c-1,0.8-2.3,1.2-3.6,1.2h-56.8c-3.1,0.1-5.6-2.3-5.7-5.3c0,0,0,0,0,0
	c0-0.3,0-0.6,0.1-0.9l1.7-9.8v-47.2h1.1c0.2,0,0.4,0.1,0.6,0.2l5.5,4c0.2,0.1,0.4,0.2,0.7,0.2c0.2,0,0.4-0.1,0.5-0.2l3.5-2.9
	c1.3-1,3.1-1,4.4,0l3.2,2.6c0.3,0.2,0.8,0.2,1.2,0l4.2-3c1.2-0.8,2.9-0.8,4.1,0.1l3.2,2.5c0.3,0.2,0.8,0.2,1.1,0l4-2.6
	c1.3-0.8,3-0.7,4.1,0.3l3.3,2.9c0.4,0.3,0.9,0.3,1.2,0l4.1-3.1c1.2-0.9,2.9-0.9,4.1,0l4.3,3.1c0.4,0.3,0.9,0.2,1.2-0.1l3.1-3.4
	c0.1-0.2,0.3-0.3,0.5-0.4h1.4v47.2l1.7,9.8C241.2,213.3,241.2,213.7,241.2,214z"/>
<path class="st6" d="M219.1,203c12.6-2.2,21-6.8,24.2-13.1c0.1-0.2,0.2-0.3,0.3-0.5l10.8,4.5c-0.2,0.5-0.4,0.9-0.7,1.4
	c-3.3,6.4-9.1,11.4-17.4,14.9c-4.9,2-10,3.5-15.2,4.3c-3.2,0.4-6.1-1.9-6.5-5.1C214.3,206.4,216.3,203.7,219.1,203L219.1,203z"/>
<path class="st2" d="M242.6,172.3c-1.2-3,0.2-6.4,3.1-7.6c2.8-1.2,6,0,7.4,2.7c4.2,9.1,4.6,18.6,1.1,26.4l-10.8-4.5
	C244.8,186.7,246.5,180.7,242.6,172.3z"/>
<path id="Trazado_1115-2" class="st3" d="M248.7,185.3c-0.4-0.3-0.6-0.7-0.8-1.2l-2.3-6.4c-0.6-1.5,0.2-3.1,1.7-3.7
	c1.5-0.6,3.1,0.2,3.7,1.7v0.1l2.3,6.4c0.5,1.5-0.3,3.1-1.8,3.7C250.5,186.2,249.4,186,248.7,185.3L248.7,185.3z"/>
<path class="st20" d="M174.8,156.1"/>
<path class="st9" d="M239.2,218.1c-1,0.8-2.3,1.2-3.6,1.2h-56.8c-3,0.1-5.6-2.3-5.8-5.3c0-0.3,0-0.6,0.1-0.9l1.7-9.8v-47.2h1.1
	c0.2,0,0.4,0.1,0.6,0.2l5.5,4c0.2,0.1,0.4,0.2,0.7,0.2c0,1.7,0,3.5,0.1,5.2C184.5,195.6,209.9,213.2,239.2,218.1z"/>
<path class="st6" d="M199.5,202.9c-12.7-1.3-21.4-5.2-25.2-11.2c-0.1-0.1-0.2-0.3-0.3-0.5l-10.4,5.3c0.2,0.5,0.5,0.9,0.8,1.4
	c3.8,6.1,10,10.6,18.4,13.5c5,1.6,10.2,2.7,15.4,3.2c3.2,0.3,6.1-2,6.4-5.2C205,206,202.7,203.2,199.5,202.9L199.5,202.9
	L199.5,202.9z"/>
<path class="st2" d="M173.8,174.1c1.1-3-0.4-6.4-3.4-7.5c-3-1.1-6.4,0.4-7.5,3.4l0,0c-3.5,9.4-3.2,18.9,0.9,26.4l10.4-5.3
	C172.6,188.6,170.5,182.8,173.8,174.1z"/>
<path id="Trazado_1113-2" class="st3" d="M167.6,188c-1.3,0-2.4-0.9-2.8-2.1l-1.3-4.5c-0.6-1.5,0.2-3.1,1.7-3.7s3.1,0.2,3.7,1.7
	c0,0.1,0,0.1,0.1,0.2c0,0.1,0.1,0.2,0.1,0.3l0,0l1.3,4.5c0.4,1.5-0.5,3.1-2,3.5C168.1,188,167.8,188,167.6,188L167.6,188z"/>
</svg>
