<svg xmlns="http://www.w3.org/2000/svg" width="313.751" height="346.495" viewBox="0 0 313.751 346.495">
  <g id="Grupo_412" data-name="Grupo 412" transform="translate(-255.431 815.208) rotate(-90)" opacity="0.75">
    <path id="Shape" d="M0,17.158A17.156,17.156,0,0,1,17.153,0H120.073a17.158,17.158,0,0,1,0,34.316H17.153A17.156,17.156,0,0,1,0,17.158Z" transform="translate(625.053 534.865)" fill="#1dc778" opacity="0.1"/>
    <path id="Shape-2" data-name="Shape" d="M0,223.057a17.158,17.158,0,0,0,17.158,17.158H70.349A62.738,62.738,0,0,0,116.1,220.482a62.738,62.738,0,0,0,45.755,19.733h52.619A62.913,62.913,0,0,0,277.392,177.3a17.158,17.158,0,0,0-34.317,0,28.6,28.6,0,0,1-28.6,28.6H161.86a28.6,28.6,0,0,1-28.6-28.6V61.77A61.77,61.77,0,0,0,71.493,0V34.316A27.453,27.453,0,0,1,98.946,61.77V177.3a28.6,28.6,0,0,1-28.6,28.6H17.158A17.158,17.158,0,0,0,0,223.057Z" transform="translate(491.748 255.431)" fill="#1dc778" opacity="0.1"/>
    <path id="Shape-3" data-name="Shape" d="M17.153,34.316A17.158,17.158,0,1,1,34.306,17.158,17.156,17.156,0,0,1,17.153,34.316Z" transform="translate(468.713 281.904)" fill="#1dc778" opacity="0.1"/>
    <path id="Shape-4" data-name="Shape" d="M17.153,34.316A17.158,17.158,0,1,1,34.306,17.158,17.156,17.156,0,0,1,17.153,34.316Z" transform="translate(651.518 295.63)" fill="#1dc778" opacity="0.1"/>
    <path id="Shape-5" data-name="Shape" d="M17.153,34.316A17.158,17.158,0,1,1,34.306,17.158,17.156,17.156,0,0,1,17.153,34.316Z" transform="translate(734.834 415.738)" fill="#1dc778" opacity="0.1"/>
    <path id="Shape-6" data-name="Shape" d="M17.153,34.316A17.158,17.158,0,1,1,34.306,17.158,17.156,17.156,0,0,1,17.153,34.316Z" transform="translate(651.518 387.304)" fill="#1dc778" opacity="0.1"/>
    <path id="Shape-7" data-name="Shape" d="M17.153,34.316A17.158,17.158,0,1,1,34.306,17.158,17.156,17.156,0,0,1,17.153,34.316Z" transform="translate(780.902 421.621)" fill="#1dc778" opacity="0.1"/>
    <path id="Shape-8" data-name="Shape" d="M17.153,34.316A17.158,17.158,0,1,1,34.306,17.158,17.156,17.156,0,0,1,17.153,34.316Z" transform="translate(780.902 467.213)" fill="#1dc778" opacity="0.1"/>
    <path id="Shape-9" data-name="Shape" d="M34.306,17.158A17.153,17.153,0,1,0,17.153,34.316,17.156,17.156,0,0,0,34.306,17.158Z" transform="translate(573.593 534.865)" fill="#1dc778" opacity="0.1"/>
    <path id="Shape-10" data-name="Shape" d="M34.306,17.158A17.153,17.153,0,1,0,17.153,34.316,17.156,17.156,0,0,0,34.306,17.158Z" transform="translate(625.053 534.865)" fill="#1dc778" opacity="0.1"/>
    <path id="Shape-11" data-name="Shape" d="M34.306,17.158A17.153,17.153,0,1,0,17.153,34.316,17.156,17.156,0,0,0,34.306,17.158Z" transform="translate(779.922 533.885)" fill="#1dc778" opacity="0.1"/>
  </g>
</svg>
