<svg xmlns="http://www.w3.org/2000/svg" width="771.424" height="461.311" viewBox="0 0 771.424 461.311">
  <g id="Grupo_410" data-name="Grupo 410" transform="translate(-294.223 -107.871)" opacity="0.75">
    <path id="Shape" d="M0,17.158A17.156,17.156,0,0,1,17.153,0H120.073a17.158,17.158,0,0,1,0,34.316H17.153A17.156,17.156,0,0,1,0,17.158Z" transform="translate(625.053 534.865)" fill="#1dc778" opacity="0.1"/>
    <path id="Shape-2" data-name="Shape" d="M0,223.057a17.158,17.158,0,0,0,17.158,17.158H70.349A62.738,62.738,0,0,0,116.1,220.482a62.738,62.738,0,0,0,45.755,19.733h52.619A62.913,62.913,0,0,0,277.392,177.3a17.158,17.158,0,0,0-34.317,0,28.6,28.6,0,0,1-28.6,28.6H161.86a28.6,28.6,0,0,1-28.6-28.6V61.77A61.77,61.77,0,0,0,71.493,0V34.316A27.453,27.453,0,0,1,98.946,61.77V177.3a28.6,28.6,0,0,1-28.6,28.6H17.158A17.158,17.158,0,0,0,0,223.057Z" transform="translate(491.748 255.431)" fill="#1dc778" opacity="0.1"/>
    <path id="Shape-3" data-name="Shape" d="M62.977,91.629A28.634,28.634,0,1,0,34.351,63,17.176,17.176,0,1,1,0,63a62.977,62.977,0,1,1,62.977,63,17.181,17.181,0,0,1,0-34.361Z" transform="translate(651.518 248.567)" fill="#1dc778" opacity="0.1"/>
    <path id="Shape-4" data-name="Shape" d="M17.153,34.316A17.158,17.158,0,1,1,34.306,17.158,17.156,17.156,0,0,1,17.153,34.316Z" transform="translate(546.148 255.431)" fill="#1dc778" opacity="0.1"/>
    <path id="Shape-5" data-name="Shape" d="M69.593,34.353a35.433,35.433,0,0,0-35.367,35.5v66.416a17.113,17.113,0,1,1-34.226,0V69.851A69.723,69.723,0,0,1,69.593,0Z" transform="translate(468.713 162.777)" fill="#1dc778" opacity="0.1"/>
    <path id="Shape-6" data-name="Shape" d="M17.153,34.316A17.158,17.158,0,1,1,34.306,17.158,17.156,17.156,0,0,1,17.153,34.316Z" transform="translate(468.713 281.904)" fill="#1dc778" opacity="0.1"/>
    <path id="Shape-7" data-name="Shape" d="M17.153,34.316A17.158,17.158,0,1,1,34.306,17.158,17.156,17.156,0,0,1,17.153,34.316Z" transform="translate(294.223 246.495)" fill="#1dc778" opacity="0.1"/>
    <path id="Shape-8" data-name="Shape" d="M63.012,34.342a28.618,28.618,0,1,0,0,57.236A113.375,113.375,0,0,1,176.433,204.906a17.185,17.185,0,0,1-34.37,0A79.018,79.018,0,0,0,63.012,125.92,62.96,62.96,0,1,1,63.012,0a17.171,17.171,0,1,1,0,34.342Z" transform="translate(509.391 107.87)" fill="#1dc778" opacity="0.1"/>
    <path id="Shape-9" data-name="Shape" d="M91.6,62.785a28.626,28.626,0,0,0-57.252,0A17.176,17.176,0,0,1,0,62.785a62.977,62.977,0,0,1,125.954,0,17.176,17.176,0,0,1-34.351,0Z" transform="translate(734.834 370.146)" fill="#1dc778" opacity="0.1"/>
    <path id="Shape-10" data-name="Shape" d="M34.306,17.158a78.916,78.916,0,0,0,78.9,78.928,17.158,17.158,0,0,1,0,34.316A113.228,113.228,0,0,1,0,17.158a17.153,17.153,0,1,1,34.306,0Z" transform="translate(762.279 110.321)" fill="#1dc778" opacity="0.1"/>
    <path id="Shape-11" data-name="Shape" d="M17.153,34.316A17.158,17.158,0,1,1,34.306,17.158,17.156,17.156,0,0,1,17.153,34.316Z" transform="translate(651.518 295.63)" fill="#1dc778" opacity="0.1"/>
    <path id="Shape-12" data-name="Shape" d="M17.153,34.316A17.158,17.158,0,1,1,34.306,17.158,17.156,17.156,0,0,1,17.153,34.316Z" transform="translate(734.834 415.738)" fill="#1dc778" opacity="0.1"/>
    <path id="Shape-13" data-name="Shape" d="M17.153,34.316A17.158,17.158,0,1,1,34.306,17.158,17.156,17.156,0,0,1,17.153,34.316Z" transform="translate(491.257 461.33)" fill="#1dc778" opacity="0.1"/>
    <path id="Shape-14" data-name="Shape" d="M17.153,34.316A17.158,17.158,0,1,1,34.306,17.158,17.156,17.156,0,0,1,17.153,34.316Z" transform="translate(651.518 341.222)" fill="#1dc778" opacity="0.1"/>
    <path id="Shape-15" data-name="Shape" d="M17.153,34.316A17.158,17.158,0,1,1,34.306,17.158,17.156,17.156,0,0,1,17.153,34.316Z" transform="translate(651.518 387.304)" fill="#1dc778" opacity="0.1"/>
    <path id="Shape-16" data-name="Shape" d="M17.153,34.316A17.158,17.158,0,1,1,34.306,17.158,17.156,17.156,0,0,1,17.153,34.316Z" transform="translate(780.902 421.621)" fill="#1dc778" opacity="0.1"/>
    <path id="Shape-17" data-name="Shape" d="M17.153,34.316A17.158,17.158,0,1,1,34.306,17.158,17.156,17.156,0,0,1,17.153,34.316Z" transform="translate(780.902 467.213)" fill="#1dc778" opacity="0.1"/>
    <path id="Shape-18" data-name="Shape" d="M17.153,96.086a78.916,78.916,0,0,0,78.9-78.928,17.153,17.153,0,1,1,34.306,0A113.228,113.228,0,0,1,17.153,130.4a17.158,17.158,0,0,1,0-34.316Z" transform="translate(784.333 437.799)" fill="#1dc778" opacity="0.1"/>
    <path id="Shape-19" data-name="Shape" d="M62.977,240.215a62.723,62.723,0,0,1-35.211-10.745,63.105,63.105,0,0,1-22.817-27.68A62.466,62.466,0,0,1,0,177.3V62.914A62.579,62.579,0,0,1,10.755,27.738,63.152,63.152,0,0,1,38.463,4.944a62.943,62.943,0,0,1,59.725,5.8A63.105,63.105,0,0,1,121,38.425a62.466,62.466,0,0,1,4.949,24.489V177.3A62.579,62.579,0,0,1,115.2,212.478,63.152,63.152,0,0,1,87.49,235.271,62.638,62.638,0,0,1,62.977,240.215Zm0-205.9a28.58,28.58,0,0,0-28.625,28.6V177.3a28.626,28.626,0,1,0,57.251,0V62.914a28.6,28.6,0,0,0-28.626-28.6Z" transform="translate(939.692 189.249)" fill="#1dc778" opacity="0.1"/>
    <path id="Shape-20" data-name="Shape" d="M109.781,72.5a37.738,37.738,0,1,0-62.118,29.084,17.181,17.181,0,0,1-22.269,26.168A72.569,72.569,0,0,1,0,72.5C0,32.537,32.178,0,72.044,0s72.044,32.537,72.044,72.5a17.153,17.153,0,1,1-34.306,0Z" transform="translate(875.98 290.728)" fill="#1dc778" opacity="0.1"/>
    <path id="Shape-21" data-name="Shape" d="M34.306,17.158a78.916,78.916,0,0,0,78.9,78.928,17.158,17.158,0,0,1,0,34.316A113.228,113.228,0,0,1,0,17.158a17.153,17.153,0,1,1,34.306,0Z" transform="translate(423.625 437.799)" fill="#1dc778" opacity="0.1"/>
    <path id="Shape-22" data-name="Shape" d="M86.773,34.263A52.528,52.528,0,0,0,34.253,86.8,17.126,17.126,0,1,1,0,86.8,86.785,86.785,0,0,1,86.773,0a17.131,17.131,0,0,1,0,34.263Z" transform="translate(823.54 246.607)" fill="#1dc778" opacity="0.1"/>
    <path id="Shape-23" data-name="Shape" d="M34.306,17.158A17.153,17.153,0,1,0,17.153,34.316,17.156,17.156,0,0,0,34.306,17.158Z" transform="translate(573.593 534.865)" fill="#1dc778" opacity="0.1"/>
    <path id="Shape-24" data-name="Shape" d="M34.306,17.158A17.153,17.153,0,1,0,17.153,34.316,17.156,17.156,0,0,0,34.306,17.158Z" transform="translate(625.053 534.865)" fill="#1dc778" opacity="0.1"/>
    <path id="Shape-25" data-name="Shape" d="M34.306,17.158A17.153,17.153,0,1,0,17.153,34.316,17.156,17.156,0,0,0,34.306,17.158Z" transform="translate(779.922 533.885)" fill="#1dc778" opacity="0.1"/>
  </g>
</svg>
