<svg xmlns="http://www.w3.org/2000/svg" width="61" height="55.389" viewBox="0 0 61 55.389">
  <g id="Grupo_1843" data-name="Grupo 1843" transform="translate(0.5 0.5)">
    <path id="Trazado_929" data-name="Trazado 929" d="M239.482,156.484c.438.013.882.038,1.321.075h0c.237.02.477.043.715.071a.9.9,0,0,0,.095.005.829.829,0,0,0,.093-1.654c-.255-.029-.513-.054-.767-.076h0c-.468-.039-.941-.066-1.409-.079a.829.829,0,0,0-.049,1.658Z" transform="translate(-226.95 -146.171)" fill="#2c2c2c" stroke="#2c2c2c" stroke-linejoin="round" stroke-width="1"/>
    <path id="Trazado_930" data-name="Trazado 930" d="M273.4,160.917c.426.1.856.211,1.278.333l0,0c.23.067.463.137.692.211a.829.829,0,1,0,.505-1.579c-.242-.078-.488-.152-.732-.223l-.005,0c-.451-.13-.91-.25-1.367-.356a.829.829,0,1,0-.376,1.615Z" transform="translate(-255.983 -149.965)" fill="#2c2c2c" stroke="#2c2c2c" stroke-linejoin="round" stroke-width="1"/>
    <path id="Trazado_931" data-name="Trazado 931" d="M205.211,157.4a.871.871,0,0,0,.149-.013c.43-.078.868-.145,1.3-.2h.006c.237-.03.479-.056.717-.077a.829.829,0,0,0-.153-1.652c-.253.024-.51.051-.761.082h-.006c-.466.058-.936.129-1.4.213a.83.83,0,0,0,.148,1.646Z" transform="translate(-197.734 -146.708)" fill="#2c2c2c" stroke="#2c2c2c" stroke-linejoin="round" stroke-width="1"/>
    <path id="Trazado_932" data-name="Trazado 932" d="M307.8,171.04l-.005,0c-.4-.214-.825-.428-1.277-.635a.83.83,0,0,0-.69,1.509c.417.19.81.386,1.172.581l0,0c.348.189.536.308.538.309a.829.829,0,1,0,.894-1.4C308.424,171.4,308.2,171.259,307.8,171.04Z" transform="translate(-283.74 -159.376)" fill="#2c2c2c" stroke="#2c2c2c" stroke-linejoin="round" stroke-width="1"/>
    <path id="Trazado_935" data-name="Trazado 935" d="M213.908,191.3a.829.829,0,0,0-.871-.786c-.256.013-.514.031-.769.053h-.006c-.47.042-.947.1-1.414.174a.829.829,0,1,0,.258,1.638c.429-.068.865-.121,1.3-.16h.006c.236-.021.476-.038.714-.05A.827.827,0,0,0,213.908,191.3Z" transform="translate(-202.645 -176.573)" fill="#2c2c2c" stroke="#2c2c2c" stroke-linejoin="round" stroke-width="1"/>
    <path id="Trazado_936" data-name="Trazado 936" d="M280.434,199.132c-.428-.189-.874-.366-1.323-.528a.829.829,0,1,0-.561,1.561c.414.149.824.312,1.219.486h0c.22.1.438.2.647.3a.829.829,0,0,0,.73-1.49c-.229-.112-.467-.223-.708-.329Z" transform="translate(-260.45 -183.424)" fill="#2c2c2c" stroke="#2c2c2c" stroke-linejoin="round" stroke-width="1"/>
    <path id="Trazado_937" data-name="Trazado 937" d="M246.8,191.185c-.467-.077-.941-.141-1.411-.186a.83.83,0,1,0-.162,1.651c.433.042.87.1,1.3.172h0c.234.039.471.083.7.13a.83.83,0,0,0,.331-1.626c-.253-.051-.51-.1-.764-.141Z" transform="translate(-231.894 -176.982)" fill="#2c2c2c" stroke="#2c2c2c" stroke-linejoin="round" stroke-width="1"/>
    <path id="Trazado_940" data-name="Trazado 940" d="M230.469,225.3a.829.829,0,0,0-.727-.92c-.257-.03-.521-.055-.783-.073h0c-.391-.027-.79-.04-1.188-.04-.081,0-.164,0-.247,0a.829.829,0,1,0,.024,1.659l.223,0c.36,0,.722.012,1.076.037h0c.235.016.472.038.7.065a.791.791,0,0,0,.1.006A.831.831,0,0,0,230.469,225.3Z" transform="translate(-216.753 -205.328)" fill="#2c2c2c" stroke="#2c2c2c" stroke-linejoin="round" stroke-width="1"/>
    <path id="Trazado_941" data-name="Trazado 941" d="M260.615,230.035a.83.83,0,0,0,.485,1.068c.162.061.249.1.249.1a.829.829,0,0,0,.707-1.5c-.023-.011-.148-.069-.373-.153A.829.829,0,0,0,260.615,230.035Z" transform="translate(-245.594 -209.782)" fill="#2c2c2c" stroke="#2c2c2c" stroke-linejoin="round" stroke-width="1"/>
    <path id="Trazado_942" data-name="Trazado 942" d="M295.883,170.24l-19.961-19.961a3.326,3.326,0,0,0-4.692,0L251.269,170.24a3.326,3.326,0,0,0,0,4.692l3.385,3.385a12.419,12.419,0,0,0-1.812,4.856,7.255,7.255,0,0,0,.465,3.363,10.618,10.618,0,0,0,2.437,3.57c1.961,1.976,5.195,3.969,8,3.969a4.461,4.461,0,0,0,1.993-.43,15.857,15.857,0,0,0,2.475-1.768l3.017,3.017a3.326,3.326,0,0,0,4.692,0l19.961-19.961a3.321,3.321,0,0,0,0-4.692ZM265,192.157a2.826,2.826,0,0,1-1.258.259c-1.984,0-4.79-1.431-6.822-3.479-4.091-4.122-2.232-7.356-.592-10.209a12.939,12.939,0,0,0,1.114-2.235,19.509,19.509,0,0,0,.947-4.763,1.6,1.6,0,1,1,3.164,0,21.476,21.476,0,0,1-.871,4.269.83.83,0,0,0,1.384.821l8.445-8.445a1.645,1.645,0,0,1,1.136-.509.9.9,0,0,1,.642.24,1.321,1.321,0,0,1-.272,1.781l-7.184,7.247c-.013.013-.025.027-.038.041a.829.829,0,0,0,1.177,1.169l9.417-9.418a1.643,1.643,0,0,1,1.136-.509.9.9,0,0,1,.642.24,1.322,1.322,0,0,1-.271,1.78l-9.348,9.411-.038.041a.829.829,0,0,0,1.177,1.169L276.744,173a1.644,1.644,0,0,1,1.136-.509.9.9,0,0,1,.642.24,1.321,1.321,0,0,1-.271,1.78l-7.989,8.052c-.013.013-.026.027-.038.042a.829.829,0,0,0,1.178,1.168l4.742-4.743a1.643,1.643,0,0,1,1.136-.509.9.9,0,0,1,.642.24,1.32,1.32,0,0,1-.269,1.778l0,0-5.86,5.921c-1.432,1.362-5.415,5.018-6.787,5.7Zm29.708-18.4L274.749,193.72a1.665,1.665,0,0,1-2.345,0l-2.919-2.919c1.586-1.378,3.07-2.781,3.427-3.12l.029-.027a.663.663,0,0,0,.049-.05l5.838-5.9a2.938,2.938,0,0,0,.268-4.122,2.45,2.45,0,0,0-.97-.593l1.3-1.312a2.938,2.938,0,0,0,.269-4.124,2.459,2.459,0,0,0-1.092-.63,2.81,2.81,0,0,0-.263-3.443,2.539,2.539,0,0,0-1.816-.725,3.309,3.309,0,0,0-2.308,1l-.159.158a2.432,2.432,0,0,0-.6-.978,2.539,2.539,0,0,0-1.815-.726,3.309,3.309,0,0,0-2.309,1l-6.348,6.345a10.412,10.412,0,0,0,.219-1.817,3.25,3.25,0,1,0-6.481,0,18.09,18.09,0,0,1-.864,4.248,5.772,5.772,0,0,1-.37.838l-3.056-3.055a1.666,1.666,0,0,1,0-2.345L272.4,151.453a1.665,1.665,0,0,1,2.346,0l19.961,19.961a1.66,1.66,0,0,1,0,2.345Z" transform="translate(-236.853 -141.473)" fill="#2c2c2c" stroke="#2c2c2c" stroke-linejoin="round" stroke-width="1"/>
    <path id="Trazado_943" data-name="Trazado 943" d="M305.358,102.194a3.321,3.321,0,0,1,3.317,3.317.83.83,0,0,0,1.659,0,3.321,3.321,0,0,1,3.317-3.317.83.83,0,0,0,0-1.659,3.321,3.321,0,0,1-3.317-3.317.83.83,0,0,0-1.659,0,3.321,3.321,0,0,1-3.317,3.317.83.83,0,0,0,0,1.659Zm4.147-2.229a5.02,5.02,0,0,0,1.4,1.4,5.02,5.02,0,0,0-1.4,1.4,5.014,5.014,0,0,0-1.4-1.4A5.015,5.015,0,0,0,309.505,99.965Z" transform="translate(-283.05 -96.387)" fill="#2c2c2c" stroke="#2c2c2c" stroke-linejoin="round" stroke-width="1"/>
    <path id="Trazado_944" data-name="Trazado 944" d="M144.513,244.177a3.321,3.321,0,0,1-3.317-3.317.83.83,0,0,0-1.659,0,3.321,3.321,0,0,1-3.317,3.317.83.83,0,1,0,0,1.659,3.321,3.321,0,0,1,3.317,3.317.83.83,0,1,0,1.659,0,3.321,3.321,0,0,1,3.317-3.317.83.83,0,0,0,0-1.659Zm-4.147,2.229a5.015,5.015,0,0,0-1.4-1.4,5.016,5.016,0,0,0,1.4-1.4,5.017,5.017,0,0,0,1.4,1.4A5.016,5.016,0,0,0,140.366,246.406Z" transform="translate(-135.389 -218.756)" fill="#2c2c2c" stroke="#2c2c2c" stroke-linejoin="round" stroke-width="1"/>
  </g>
</svg>
