<svg xmlns="http://www.w3.org/2000/svg" width="33" height="33" viewBox="0 0 33 33">
  <g id="sweat" transform="translate(0)">
    <path id="Trazado_541" data-name="Trazado 541" d="M30.7,8.106a4.007,4.007,0,0,0,1.068-2.726,6.6,6.6,0,0,0-1.413-3.416C29.807,1.231,28.744,0,27.741,0s-2.066,1.231-2.61,1.965c-.067.091-.149.2-.239.338a16.523,16.523,0,1,0,5.8,5.8ZM27.741,1.994c.639.443,2.089,2.3,2.089,3.387a2.089,2.089,0,1,1-4.178,0c0-1.09,1.45-2.944,2.089-3.387ZM16.5,31.066a14.566,14.566,0,1,1,7.491-27.05,4.028,4.028,0,0,0-.272,1.364,4.021,4.021,0,0,0,5.362,3.792A14.554,14.554,0,0,1,16.5,31.066Z" fill="#e83737"/>
    <path id="Trazado_542" data-name="Trazado 542" d="M106.552,175.1a.967.967,0,0,0-1.829-.626,2.288,2.288,0,0,1-4.33,0,.967.967,0,0,0-1.83.625,4.222,4.222,0,0,0,7.989,0Z" transform="translate(-92.162 -162.617)" fill="#e83737"/>
    <path id="Trazado_543" data-name="Trazado 543" d="M295.436,173.875a.967.967,0,0,0-1.228.6,2.288,2.288,0,0,1-4.33,0,.967.967,0,1,0-1.83.625,4.222,4.222,0,0,0,7.989,0A.967.967,0,0,0,295.436,173.875Z" transform="translate(-269.434 -162.617)" fill="#e83737"/>
    <path id="Trazado_544" data-name="Trazado 544" d="M157.768,281A6.775,6.775,0,0,0,151,287.769v1.16a.967.967,0,0,0,.967.967h11.6a.967.967,0,0,0,.967-.967v-1.16A6.775,6.775,0,0,0,157.768,281Zm-1.54,6.961a1.772,1.772,0,0,1,3.033,0Zm6.374,0h-1.268a3.7,3.7,0,0,0-7.133-.163.976.976,0,0,0-.034.163h-1.233v-.193a4.834,4.834,0,0,1,9.668,0Z" transform="translate(-141.268 -262.89)" fill="#e83737"/>
  </g>
</svg>
