<svg xmlns="http://www.w3.org/2000/svg" width="24.662" height="25.59" viewBox="0 0 24.662 25.59">
  <g id="discount" transform="translate(-9.758 0.643)">
    <g id="Grupo_762" data-name="Grupo 762" transform="translate(10.359 -0.002)">
      <g id="Grupo_761" data-name="Grupo 761" transform="translate(0 0)">
        <path id="Trazado_521" data-name="Trazado 521" d="M32.687,12.539a.716.716,0,0,1,0-.633L33.6,10.04a2.122,2.122,0,0,0-.916-2.818l-1.834-.973a.716.716,0,0,1-.372-.512l-.359-2.045a2.122,2.122,0,0,0-2.4-1.742l-2.056.291a.716.716,0,0,1-.6-.2L23.57.6a2.122,2.122,0,0,0-2.963,0L19.115,2.045a.717.717,0,0,1-.6.2L16.457,1.95a2.122,2.122,0,0,0-2.4,1.742L13.7,5.737a.717.717,0,0,1-.372.512l-1.834.973a2.122,2.122,0,0,0-.916,2.818l.912,1.865a.716.716,0,0,1,0,.633L10.578,14.4a2.122,2.122,0,0,0,.916,2.818l1.834.973a.716.716,0,0,1,.372.512l.359,2.045a2.121,2.121,0,0,0,2.092,1.763,2.18,2.18,0,0,0,.305-.022l2.056-.291a.716.716,0,0,1,.6.2l1.492,1.444a2.122,2.122,0,0,0,2.963,0L25.063,22.4a.717.717,0,0,1,.6-.2l2.056.291a2.122,2.122,0,0,0,2.4-1.742l.359-2.045a.717.717,0,0,1,.372-.512l1.834-.973A2.122,2.122,0,0,0,33.6,14.4Zm-.665,3.438-1.834.973a2.118,2.118,0,0,0-1.1,1.514l-.359,2.045a.718.718,0,0,1-.811.589l-2.056-.291a2.117,2.117,0,0,0-1.78.578L22.59,22.83a.718.718,0,0,1-1,0L20.1,21.387a2.115,2.115,0,0,0-1.477-.6,2.165,2.165,0,0,0-.3.021l-2.056.291a.718.718,0,0,1-.811-.589l-.359-2.045a2.117,2.117,0,0,0-1.1-1.514l-1.834-.973a.718.718,0,0,1-.31-.954l.912-1.865a2.118,2.118,0,0,0,0-1.872l-.912-1.865a.718.718,0,0,1,.31-.954l1.834-.973a2.118,2.118,0,0,0,1.1-1.514l.359-2.045a.718.718,0,0,1,.811-.589l2.056.291a2.118,2.118,0,0,0,1.78-.578l1.492-1.444a.718.718,0,0,1,1,0l1.492,1.444a2.117,2.117,0,0,0,1.78.578l2.056-.291a.718.718,0,0,1,.811.589l.359,2.045a2.117,2.117,0,0,0,1.1,1.514l1.834.973a.718.718,0,0,1,.31.954l-.912,1.865a2.118,2.118,0,0,0,0,1.872l.912,1.865A.718.718,0,0,1,32.022,15.977Z" transform="translate(-10.359 0.002)" fill="#6b24f8" stroke="#6b24f8" stroke-width="1"/>
      </g>
    </g>
    <g id="Grupo_764" data-name="Grupo 764" transform="translate(16.73 6.864)">
      <g id="Grupo_763" data-name="Grupo 763">
        <path id="Trazado_522" data-name="Trazado 522" d="M154.3,144a.705.705,0,0,0-1,0L144,153.3a.705.705,0,1,0,1,1L154.3,145A.705.705,0,0,0,154.3,144Z" transform="translate(-143.791 -143.791)" fill="#6b24f8" stroke="#6b24f8" stroke-width="1"/>
      </g>
    </g>
    <g id="Grupo_766" data-name="Grupo 766" transform="translate(16.683 5.877)">
      <g id="Grupo_765" data-name="Grupo 765">
        <path id="Trazado_523" data-name="Trazado 523" d="M145.387,123.116a2.585,2.585,0,1,0,2.585,2.585A2.588,2.588,0,0,0,145.387,123.116Zm0,3.76a1.175,1.175,0,1,1,1.175-1.175A1.176,1.176,0,0,1,145.387,126.876Z" transform="translate(-142.802 -123.116)" fill="#6b24f8" stroke="#6b24f8" stroke-width="1"/>
      </g>
    </g>
    <g id="Grupo_768" data-name="Grupo 768" transform="translate(22.324 13.398)">
      <g id="Grupo_767" data-name="Grupo 767">
        <path id="Trazado_524" data-name="Trazado 524" d="M263.507,280.61a2.585,2.585,0,1,0,2.585,2.585A2.588,2.588,0,0,0,263.507,280.61Zm0,3.76a1.175,1.175,0,1,1,1.175-1.175A1.176,1.176,0,0,1,263.507,284.37Z" transform="translate(-260.922 -280.61)" fill="#6b24f8" stroke="#6b24f8" stroke-width="1"/>
      </g>
    </g>
  </g>
</svg>
