<svg xmlns="http://www.w3.org/2000/svg" width="61.03" height="41.94" viewBox="0 0 61.03 41.94">
  <g id="Grupo_1840" data-name="Grupo 1840" transform="translate(0.523 0.516)">
    <path id="Trazado_977" data-name="Trazado 977" d="M91.1,111.806H76.969a1.363,1.363,0,0,1-1.376-1.251L72.341,90.667a1.3,1.3,0,0,0-1.5-1,1.239,1.239,0,0,0-1,1.376l3.252,20.014a4,4,0,0,0,3.878,3.252h5.379v13.635H77.469a1.251,1.251,0,0,0,0,2.5H89.727a1.251,1.251,0,0,0,0-2.5H84.849V114.309H91.1a1.182,1.182,0,0,0,1.251-1.251,1.254,1.254,0,0,0-1.251-1.251Z" transform="translate(-69.82 -89.647)" fill="#2c2c2c" stroke="#2c2c2c" stroke-linejoin="round" stroke-width="1"/>
    <path id="Trazado_978" data-name="Trazado 978" d="M441.513,89.672a1.3,1.3,0,0,0-1.5,1l-3.252,20.014a1.457,1.457,0,0,1-1.376,1.251H421.249a1.251,1.251,0,1,0,0,2.5H427.5v13.635h-4.878a1.251,1.251,0,0,0,0,2.5h12.258a1.251,1.251,0,1,0,0-2.5H430V114.314h5.254a4,4,0,0,0,3.878-3.252l3.252-20.014a1.069,1.069,0,0,0-.875-1.376Z" transform="translate(-382.454 -89.652)" fill="#2c2c2c" stroke="#2c2c2c" stroke-linejoin="round" stroke-width="1"/>
    <path id="Trazado_979" data-name="Trazado 979" d="M205.773,103.714a1.251,1.251,0,1,0,0-2.5h-6.755v-3.5a6.825,6.825,0,0,0,5.5-6.629,1.182,1.182,0,0,0-1.251-1.251H192.389a1.286,1.286,0,0,0-1.251,1.376,6.825,6.825,0,0,0,5.5,6.629v3.5H178.629V97.71a6.825,6.825,0,0,0,5.5-6.629,1.182,1.182,0,0,0-1.251-1.251H172a1.286,1.286,0,0,0-1.251,1.376,6.825,6.825,0,0,0,5.5,6.629v3.5h-7a1.251,1.251,0,0,0,0,2.5h12.008l2.752,25.392a1.33,1.33,0,0,0,1.251,1.126h4.378a1.331,1.331,0,0,0,1.251-1.126l2.876-25.517ZM193.765,92.332h8.006a4.17,4.17,0,0,1-8.006,0Zm-20.513,0h8.006a4.17,4.17,0,0,1-8.006,0Zm15.26,35.4h-2.126l-2.627-24.016h7.505Z" transform="translate(-157.472 -89.81)" fill="#2c2c2c" stroke="#2c2c2c" stroke-linejoin="round" stroke-width="1"/>
  </g>
</svg>
