<svg id="Grupo_417" data-name="Grupo 417" xmlns="http://www.w3.org/2000/svg" xmlns:xlink="http://www.w3.org/1999/xlink" width="125.841" height="28.688" viewBox="0 0 125.841 28.688">
  <defs>
    <clipPath id="clip-path">
      <rect id="Rectángulo_215" data-name="Rectángulo 215" width="125.841" height="28.688" fill="#6b24f8"/>
    </clipPath>
    <clipPath id="clip-path-2">
      <path id="Trazado_139" data-name="Trazado 139" d="M5.694,22.42a5.648,5.648,0,0,1-2.036-2.037,5.786,5.786,0,0,1,0-5.695,5.773,5.773,0,0,1,2.036-2.035,5.493,5.493,0,0,1,2.848-.75,5.49,5.49,0,0,1,2.847.75,5.894,5.894,0,0,1,2.035,2.035,5.774,5.774,0,0,1,0,5.695,5.764,5.764,0,0,1-2.035,2.037,5.515,5.515,0,0,1-2.847.765,5.518,5.518,0,0,1-2.848-.765M4.255,10.157A8.676,8.676,0,0,0,1.163,13.25,8.162,8.162,0,0,0,0,17.536a8.092,8.092,0,0,0,1.163,4.288,8.721,8.721,0,0,0,3.091,3.106,8.249,8.249,0,0,0,4.288,1.148,8.235,8.235,0,0,0,3.061-.564,8.39,8.39,0,0,0,2.572-1.578v1.228a.916.916,0,0,0,.916.915h1.075a.916.916,0,0,0,.917-.916V17.536a8.409,8.409,0,0,0-1.179-4.3,8.718,8.718,0,0,0-3.078-3.077A8.263,8.263,0,0,0,8.542,9a8.272,8.272,0,0,0-4.288,1.162" transform="translate(0 -8.995)" fill="#6b24f8"/>
    </clipPath>
    <clipPath id="clip-path-4">
      <path id="Trazado_141" data-name="Trazado 141" d="M38.2,22.42a5.655,5.655,0,0,1-2.037-2.037,5.778,5.778,0,0,1,0-5.695A5.78,5.78,0,0,1,38.2,12.653a5.782,5.782,0,0,1,5.695,0,5.89,5.89,0,0,1,2.036,2.035,5.778,5.778,0,0,1,0,5.695A5.76,5.76,0,0,1,43.9,22.42a5.68,5.68,0,0,1-5.695,0M36.765,10.157a8.714,8.714,0,0,0-3.077,3.077A8.355,8.355,0,0,0,32.51,17.52V30.963a.917.917,0,0,0,.916.917H34.5a.916.916,0,0,0,.915-.917V23.934a8.519,8.519,0,0,0,9.92.995,8.711,8.711,0,0,0,3.093-3.106,8.086,8.086,0,0,0,1.163-4.288,8.156,8.156,0,0,0-1.163-4.286,8.666,8.666,0,0,0-3.093-3.093A8.262,8.262,0,0,0,41.052,9a8.122,8.122,0,0,0-4.286,1.162" transform="translate(-32.51 -8.995)" fill="#6b24f8"/>
    </clipPath>
    <clipPath id="clip-path-6">
      <path id="Trazado_143" data-name="Trazado 143" d="M70.715,22.42a5.64,5.64,0,0,1-2.037-2.037,5.782,5.782,0,0,1,0-5.695,5.764,5.764,0,0,1,2.037-2.035,5.781,5.781,0,0,1,5.694,0,5.909,5.909,0,0,1,2.037,2.035,5.778,5.778,0,0,1,0,5.695,5.778,5.778,0,0,1-2.037,2.037,5.679,5.679,0,0,1-5.694,0M69.276,10.157A8.709,8.709,0,0,0,66.2,13.234a8.337,8.337,0,0,0-1.18,4.287V30.963a.918.918,0,0,0,.917.917h1.075a.917.917,0,0,0,.917-.917V23.934a8.518,8.518,0,0,0,9.919.995,8.715,8.715,0,0,0,3.093-3.106A8.081,8.081,0,0,0,82.1,17.536,8.15,8.15,0,0,0,80.94,13.25a8.669,8.669,0,0,0-3.093-3.093A8.263,8.263,0,0,0,73.561,9a8.12,8.12,0,0,0-4.286,1.162" transform="translate(-65.019 -8.995)" fill="#6b24f8"/>
    </clipPath>
    <clipPath id="clip-path-8">
      <path id="Trazado_145" data-name="Trazado 145" d="M103.225,22.42a5.643,5.643,0,0,1-2.036-2.037,5.778,5.778,0,0,1,0-5.695,5.767,5.767,0,0,1,2.036-2.035,5.783,5.783,0,0,1,5.7,0,5.9,5.9,0,0,1,2.035,2.035,5.773,5.773,0,0,1,0,5.695,5.769,5.769,0,0,1-2.035,2.037,5.682,5.682,0,0,1-5.7,0m-1.438-12.263a8.664,8.664,0,0,0-3.093,3.093,8.151,8.151,0,0,0-1.164,4.286,8.081,8.081,0,0,0,1.164,4.288,8.71,8.71,0,0,0,3.093,3.106,8.58,8.58,0,0,0,7.347.583,8.39,8.39,0,0,0,2.572-1.578v1.226a.915.915,0,0,0,.916.916H113.7a.915.915,0,0,0,.915-.916V17.536a8.4,8.4,0,0,0-1.179-4.3,8.718,8.718,0,0,0-3.076-3.077,8.487,8.487,0,0,0-8.573,0" transform="translate(-97.53 -8.995)" fill="#6b24f8"/>
    </clipPath>
    <clipPath id="clip-path-10">
      <path id="Trazado_147" data-name="Trazado 147" d="M130.958,9a.916.916,0,0,0-.917.916v15.25a.916.916,0,0,0,.917.916h1.075a.916.916,0,0,0,.917-.916V17.536a5.491,5.491,0,0,1,.751-2.848,5.772,5.772,0,0,1,2.034-2.035,5.335,5.335,0,0,1,2.056-.7.912.912,0,0,0,.792-.906V9.967a.918.918,0,0,0-1.023-.913,8.357,8.357,0,0,0-4.61,2.083V9.911A.916.916,0,0,0,132.033,9Z" transform="translate(-130.041 -8.995)" fill="#6b24f8"/>
    </clipPath>
    <clipPath id="clip-path-12">
      <path id="Trazado_149" data-name="Trazado 149" d="M150.226,0a.916.916,0,0,0-.916.917V14.39a8.532,8.532,0,0,0,1.179,4.286,8.782,8.782,0,0,0,3.077,3.061,8.154,8.154,0,0,0,3.272,1.093.917.917,0,0,0,1.014-.914v-1.07a.912.912,0,0,0-.786-.906A5.44,5.44,0,0,1,155,19.228a5.813,5.813,0,0,1-2.021-2.021,5.585,5.585,0,0,1-.766-2.847V12.89h4.718a.917.917,0,0,0,.916-.917V10.914a.917.917,0,0,0-.916-.917h-4.718V.917A.916.916,0,0,0,151.3,0Z" transform="translate(-149.31)" fill="#6b24f8"/>
    </clipPath>
    <clipPath id="clip-path-14">
      <path id="Trazado_151" data-name="Trazado 151" d="M174.274,22.42a5.645,5.645,0,0,1-2.037-2.037,5.778,5.778,0,0,1,0-5.695,5.769,5.769,0,0,1,2.037-2.035,5.781,5.781,0,0,1,5.694,0A5.9,5.9,0,0,1,182,14.688a5.786,5.786,0,0,1,0,5.695,5.769,5.769,0,0,1-2.037,2.037,5.679,5.679,0,0,1-5.694,0m-1.439-12.263a8.677,8.677,0,0,0-3.092,3.093,8.15,8.15,0,0,0-1.163,4.286,8.08,8.08,0,0,0,1.163,4.288,8.723,8.723,0,0,0,3.092,3.106,8.583,8.583,0,0,0,7.349.583,8.369,8.369,0,0,0,2.571-1.578v1.226a.916.916,0,0,0,.917.916h1.075a.917.917,0,0,0,.917-.916V17.536a8.4,8.4,0,0,0-1.18-4.3,8.709,8.709,0,0,0-3.077-3.077,8.487,8.487,0,0,0-8.573,0" transform="translate(-168.579 -8.995)" fill="#6b24f8"/>
    </clipPath>
  </defs>
  <g id="Grupo_390" data-name="Grupo 390" transform="translate(0 0)">
    <g id="Grupo_389" data-name="Grupo 389" clip-path="url(#clip-path)">
      <path id="Trazado_138" data-name="Trazado 138" d="M5.694,22.42a5.653,5.653,0,0,1-2.036-2.037,5.783,5.783,0,0,1,0-5.7,5.773,5.773,0,0,1,2.036-2.035,5.493,5.493,0,0,1,2.848-.75,5.49,5.49,0,0,1,2.847.75,5.89,5.89,0,0,1,2.036,2.035,5.779,5.779,0,0,1,0,5.7,5.766,5.766,0,0,1-2.036,2.037,5.515,5.515,0,0,1-2.847.764,5.517,5.517,0,0,1-2.848-.764M4.255,10.157a8.681,8.681,0,0,0-3.092,3.092A8.162,8.162,0,0,0,0,17.536a8.091,8.091,0,0,0,1.163,4.287,8.723,8.723,0,0,0,3.092,3.106,8.242,8.242,0,0,0,4.287,1.148,8.241,8.241,0,0,0,3.062-.565,8.368,8.368,0,0,0,2.572-1.579v1.228a.916.916,0,0,0,.916.915h1.075a.917.917,0,0,0,.917-.916V17.536a8.41,8.41,0,0,0-1.179-4.3,8.716,8.716,0,0,0-3.078-3.076A8.259,8.259,0,0,0,8.542,8.994a8.267,8.267,0,0,0-4.287,1.163" transform="translate(0 -3.192)" fill="#6b24f8"/>
    </g>
  </g>
  <g id="Grupo_392" data-name="Grupo 392" transform="translate(0 5.803)">
    <g id="Grupo_391" data-name="Grupo 391" clip-path="url(#clip-path-2)">
      <rect id="Rectángulo_216" data-name="Rectángulo 216" width="17.084" height="17.083" transform="translate(0 -0.001)" fill="#6b24f8"/>
    </g>
  </g>
  <g id="Grupo_394" data-name="Grupo 394" transform="translate(0 0)">
    <g id="Grupo_393" data-name="Grupo 393" clip-path="url(#clip-path)">
      <path id="Trazado_140" data-name="Trazado 140" d="M38.2,22.42a5.65,5.65,0,0,1-2.037-2.037,5.779,5.779,0,0,1,0-5.7A5.769,5.769,0,0,1,38.2,12.653a5.782,5.782,0,0,1,5.695,0,5.9,5.9,0,0,1,2.036,2.035,5.779,5.779,0,0,1,0,5.7A5.771,5.771,0,0,1,43.9,22.42a5.685,5.685,0,0,1-5.695,0M36.765,10.157a8.719,8.719,0,0,0-3.077,3.076,8.368,8.368,0,0,0-1.179,4.288V30.963a.917.917,0,0,0,.917.917H34.5a.915.915,0,0,0,.915-.917V23.933a8.516,8.516,0,0,0,9.92,1,8.71,8.71,0,0,0,3.093-3.106,8.086,8.086,0,0,0,1.164-4.287,8.157,8.157,0,0,0-1.164-4.287,8.667,8.667,0,0,0-3.093-3.092,8.263,8.263,0,0,0-4.286-1.163,8.116,8.116,0,0,0-4.286,1.163" transform="translate(-11.536 -3.192)" fill="#6b24f8"/>
    </g>
  </g>
  <g id="Grupo_396" data-name="Grupo 396" transform="translate(20.973 5.803)">
    <g id="Grupo_395" data-name="Grupo 395" clip-path="url(#clip-path-4)">
      <rect id="Rectángulo_218" data-name="Rectángulo 218" width="17.084" height="22.886" transform="translate(-0.001 -0.001)" fill="#6b24f8"/>
    </g>
  </g>
  <g id="Grupo_398" data-name="Grupo 398" transform="translate(0 0)">
    <g id="Grupo_397" data-name="Grupo 397" clip-path="url(#clip-path)">
      <path id="Trazado_142" data-name="Trazado 142" d="M70.715,22.42a5.645,5.645,0,0,1-2.037-2.037,5.783,5.783,0,0,1,0-5.7,5.764,5.764,0,0,1,2.037-2.035,5.781,5.781,0,0,1,5.694,0,5.909,5.909,0,0,1,2.037,2.035,5.779,5.779,0,0,1,0,5.7,5.783,5.783,0,0,1-2.037,2.037,5.683,5.683,0,0,1-5.694,0M69.276,10.157A8.709,8.709,0,0,0,66.2,13.233a8.343,8.343,0,0,0-1.179,4.288V30.963a.918.918,0,0,0,.917.917h1.075a.917.917,0,0,0,.917-.917V23.933a8.515,8.515,0,0,0,9.92,1,8.706,8.706,0,0,0,3.091-3.106A8.075,8.075,0,0,0,82.1,17.536a8.145,8.145,0,0,0-1.164-4.287,8.664,8.664,0,0,0-3.091-3.092,8.263,8.263,0,0,0-4.286-1.163,8.116,8.116,0,0,0-4.286,1.163" transform="translate(-23.073 -3.192)" fill="#6b24f8"/>
    </g>
  </g>
  <g id="Grupo_400" data-name="Grupo 400" transform="translate(41.946 5.803)">
    <g id="Grupo_399" data-name="Grupo 399" clip-path="url(#clip-path-6)">
      <rect id="Rectángulo_220" data-name="Rectángulo 220" width="17.084" height="22.886" transform="translate(0 -0.001)" fill="#6b24f8"/>
    </g>
  </g>
  <g id="Grupo_402" data-name="Grupo 402" transform="translate(0 0)">
    <g id="Grupo_401" data-name="Grupo 401" clip-path="url(#clip-path)">
      <path id="Trazado_144" data-name="Trazado 144" d="M103.225,22.42a5.646,5.646,0,0,1-2.035-2.037,5.779,5.779,0,0,1,0-5.7,5.765,5.765,0,0,1,2.035-2.035,5.783,5.783,0,0,1,5.7,0,5.9,5.9,0,0,1,2.035,2.035,5.775,5.775,0,0,1,0,5.7,5.774,5.774,0,0,1-2.035,2.037,5.686,5.686,0,0,1-5.7,0m-1.438-12.263a8.667,8.667,0,0,0-3.093,3.092,8.157,8.157,0,0,0-1.164,4.287,8.086,8.086,0,0,0,1.164,4.287,8.71,8.71,0,0,0,3.093,3.106,8.573,8.573,0,0,0,7.347.583,8.372,8.372,0,0,0,2.572-1.579v1.228a.915.915,0,0,0,.916.916H113.7a.916.916,0,0,0,.915-.916V17.536a8.4,8.4,0,0,0-1.179-4.3,8.716,8.716,0,0,0-3.076-3.076,8.479,8.479,0,0,0-8.573,0" transform="translate(-34.61 -3.192)" fill="#6b24f8"/>
    </g>
  </g>
  <g id="Grupo_404" data-name="Grupo 404" transform="translate(62.92 5.803)">
    <g id="Grupo_403" data-name="Grupo 403" clip-path="url(#clip-path-8)">
      <rect id="Rectángulo_222" data-name="Rectángulo 222" width="17.084" height="17.083" transform="translate(0 -0.001)" fill="#6b24f8"/>
    </g>
  </g>
  <g id="Grupo_406" data-name="Grupo 406" transform="translate(0 0)">
    <g id="Grupo_405" data-name="Grupo 405" clip-path="url(#clip-path)">
      <path id="Trazado_146" data-name="Trazado 146" d="M130.957,8.994a.916.916,0,0,0-.917.916V25.16a.917.917,0,0,0,.917.917h1.074a.917.917,0,0,0,.917-.917V17.536a5.489,5.489,0,0,1,.75-2.848,5.776,5.776,0,0,1,2.035-2.036,5.345,5.345,0,0,1,2.056-.7.912.912,0,0,0,.792-.906V9.967a.918.918,0,0,0-1.023-.913,8.361,8.361,0,0,0-4.61,2.082V9.91a.917.917,0,0,0-.917-.916Z" transform="translate(-46.147 -3.192)" fill="#6b24f8"/>
    </g>
  </g>
  <g id="Grupo_408" data-name="Grupo 408" transform="translate(83.894 5.803)">
    <g id="Grupo_407" data-name="Grupo 407" clip-path="url(#clip-path-10)">
      <rect id="Rectángulo_224" data-name="Rectángulo 224" width="8.542" height="17.089" transform="translate(0 -0.006)" fill="#6b24f8"/>
    </g>
  </g>
  <g id="Grupo_410" data-name="Grupo 410" transform="translate(0 0)">
    <g id="Grupo_409" data-name="Grupo 409" clip-path="url(#clip-path)">
      <path id="Trazado_148" data-name="Trazado 148" d="M150.226,0a.917.917,0,0,0-.916.917V14.39a8.536,8.536,0,0,0,1.179,4.287,8.791,8.791,0,0,0,3.077,3.061,8.164,8.164,0,0,0,3.272,1.093.917.917,0,0,0,1.014-.914v-1.07a.91.91,0,0,0-.786-.905A5.451,5.451,0,0,1,155,19.228a5.824,5.824,0,0,1-2.021-2.021,5.6,5.6,0,0,1-.766-2.848V12.89h4.718a.916.916,0,0,0,.916-.917V10.914a.917.917,0,0,0-.916-.917h-4.718V.917A.916.916,0,0,0,151.3,0Z" transform="translate(-52.985 0)" fill="#6b24f8"/>
    </g>
  </g>
  <g id="Grupo_412" data-name="Grupo 412" transform="translate(96.325)">
    <g id="Grupo_411" data-name="Grupo 411" clip-path="url(#clip-path-12)">
      <rect id="Rectángulo_226" data-name="Rectángulo 226" width="8.542" height="22.891" transform="translate(0 0)" fill="#6b24f8"/>
    </g>
  </g>
  <g id="Grupo_414" data-name="Grupo 414" transform="translate(0 0)">
    <g id="Grupo_413" data-name="Grupo 413" clip-path="url(#clip-path)">
      <path id="Trazado_150" data-name="Trazado 150" d="M174.273,22.42a5.645,5.645,0,0,1-2.037-2.037,5.779,5.779,0,0,1,0-5.7,5.764,5.764,0,0,1,2.037-2.035,5.781,5.781,0,0,1,5.694,0A5.9,5.9,0,0,1,182,14.688a5.783,5.783,0,0,1,0,5.7,5.773,5.773,0,0,1-2.037,2.037,5.683,5.683,0,0,1-5.694,0m-1.439-12.263a8.672,8.672,0,0,0-3.093,3.092,8.157,8.157,0,0,0-1.163,4.287,8.086,8.086,0,0,0,1.163,4.287,8.715,8.715,0,0,0,3.093,3.106,8.576,8.576,0,0,0,7.349.583,8.366,8.366,0,0,0,2.571-1.579v1.228a.916.916,0,0,0,.916.916h1.076a.917.917,0,0,0,.917-.916V17.536a8.4,8.4,0,0,0-1.181-4.3,8.711,8.711,0,0,0-3.076-3.076,8.479,8.479,0,0,0-8.573,0" transform="translate(-59.822 -3.192)" fill="#6b24f8"/>
    </g>
  </g>
  <g id="Grupo_416" data-name="Grupo 416" transform="translate(108.756 5.803)">
    <g id="Grupo_415" data-name="Grupo 415" clip-path="url(#clip-path-14)">
      <rect id="Rectángulo_228" data-name="Rectángulo 228" width="17.084" height="17.083" transform="translate(0 -0.001)" fill="#6b24f8"/>
    </g>
  </g>
</svg>
