<svg xmlns="http://www.w3.org/2000/svg" width="23.847" height="28.6" viewBox="0 0 23.847 28.6">
  <g id="restaurant" transform="translate(-43.159 0.3)">
    <path id="Trazado_519" data-name="Trazado 519" d="M55.082,0a11.625,11.625,0,0,0-3.662,22.657L54.378,27.6a.82.82,0,0,0,1.408,0l2.958-4.944a11.727,11.727,0,0,0,5.621-4.037A11.624,11.624,0,0,0,55.082,0Zm2.881,21.183a.82.82,0,0,0-.468.364l-2.414,4.034-2.414-4.034a.82.82,0,0,0-.468-.364,9.983,9.983,0,1,1,5.762,0Z" transform="translate(0 0)" fill="#6c7382" stroke="#6c7382" stroke-width="0.6"/>
    <path id="Trazado_520" data-name="Trazado 520" d="M139.776,116.076h-.355a5.92,5.92,0,0,0-5.091-5.848v-.1a.82.82,0,1,0-1.641,0v.1a5.92,5.92,0,0,0-5.091,5.848h-.355a.82.82,0,0,0,0,1.641h12.532a.82.82,0,0,0,0-1.641Zm-6.266-4.265a4.275,4.275,0,0,1,4.27,4.265h-8.54A4.275,4.275,0,0,1,133.51,111.811Z" transform="translate(-78.428 -103.328)" fill="#6c7382" stroke="#6c7382" stroke-width="0.6"/>
  </g>
</svg>
