<svg xmlns="http://www.w3.org/2000/svg" width="61" height="60.974" viewBox="0 0 61 60.974">
  <g id="Grupo_1844" data-name="Grupo 1844" transform="translate(0.499 0.5)">
    <path id="Trazado_986" data-name="Trazado 986" d="M210.658,353.776l-13.573,8.008-5.165-3.273h6.516a3.754,3.754,0,1,0,0-7.5H187.254a10.224,10.224,0,0,0-3.754.681l-8.689,3.984v-.871a1,1,0,0,0-1-1h-7.517a1,1,0,0,0-1,1v17.017a1,1,0,0,0,1,1h7.5a1,1,0,0,0,1-1v-1h21.221a6.375,6.375,0,0,0,3.744-1.211l14.494-10.38a3.293,3.293,0,0,0-3.594-5.455ZM172.77,370.792h-5.455V355.777h5.455Zm40.3-13.234v.05l-14.515,10.35a4.284,4.284,0,0,1-2.543.821h-21.2V357.9l9.469-4.274a8.371,8.371,0,0,1,3-.55h11.151a1.712,1.712,0,0,1,0,3.414h-10.01a1,1,0,0,0-.541,1.892l8.639,5.526a1,1,0,0,0,1.071,0l14.115-8.388a1.251,1.251,0,0,1,1.362,2.092Z" transform="translate(-156.394 -312.85)" fill="#2c2c2c" stroke="#2c2c2c" stroke-linejoin="round" stroke-width="1"/>
    <path id="Trazado_987" data-name="Trazado 987" d="M146.5,50.2h-2.393a26.276,26.276,0,0,0-22.943-25.355,4.434,4.434,0,1,0-6.606,0A26.266,26.266,0,0,0,91.606,50.2H88.5a1,1,0,0,0,0,2h58a1,1,0,1,0,0-2Zm-28.639-30.69a2.392,2.392,0,1,1-1.691.7A2.393,2.393,0,0,1,117.862,19.513ZM93.648,50.2a24.214,24.214,0,0,1,48.418,0Z" transform="translate(-87.501 -17.456)" fill="#2c2c2c" stroke="#2c2c2c" stroke-linejoin="round" stroke-width="1"/>
    <path id="Trazado_988" data-name="Trazado 988" d="M248.516,164.5a1,1,0,0,0-.8-.09,11.293,11.293,0,0,0-7.227,6.176,1.052,1.052,0,0,0,.391,1.442,1,1,0,0,0,.5.13,1.051,1.051,0,0,0,.931-.551l.05-.11h0a9.229,9.229,0,0,1,5.906-5.065,1.051,1.051,0,0,0,.22-1.932Z" transform="translate(-222.862 -147.558)" fill="#2c2c2c" stroke="#2c2c2c" stroke-linejoin="round" stroke-width="1"/>
  </g>
</svg>
