<svg xmlns="http://www.w3.org/2000/svg" width="51.159" height="60.3" viewBox="0 0 51.159 60.3">
  <g id="Grupo_1841" data-name="Grupo 1841" transform="translate(0.266 0.15)">
    <path id="Trazado_1004" data-name="Trazado 1004" d="M173.954,73.308a3.508,3.508,0,1,1-2.484-2.484l7.185-7.184a1.756,1.756,0,0,1,2.483,2.484ZM170.33,62.542a1.757,1.757,0,0,0,1.757-1.758v-1.05a1.757,1.757,0,1,0-3.514,0v1.05a1.758,1.758,0,0,0,1.757,1.758Zm0,23.344a1.757,1.757,0,0,0-1.757,1.757v1.051a1.757,1.757,0,0,0,3.514,0V87.643a1.756,1.756,0,0,0-1.757-1.757Zm11.907-11.672a1.759,1.759,0,0,0,1.757,1.757h1.051a1.757,1.757,0,0,0,0-3.514h-1.051A1.759,1.759,0,0,0,182.237,74.214Zm-25.105-1.757h-1.05a1.757,1.757,0,0,0,0,3.514h1.05a1.757,1.757,0,0,0,0-3.514ZM159.66,82.3l-.742.742a1.758,1.758,0,0,0,1.243,3c.881,0,1.262-.534,1.983-1.258A1.757,1.757,0,0,0,159.66,82.3Zm21.644.164h0a1.758,1.758,0,1,0-2.486,2.486c.724.723,1.1,1.258,1.986,1.258h0a1.76,1.76,0,0,0,1.242-3ZM161.567,62.733a1.757,1.757,0,1,0-2.486,2.484l.744.745a1.757,1.757,0,0,0,2.484-2.486Zm33.8-7.034a1.757,1.757,0,0,1-2.486,2.484l-1.313-1.314-2.887,2.887a23.191,23.191,0,1,1-36.227,0l-2.887-2.887-1.314,1.316h0a1.757,1.757,0,0,1-2.484-2.487l5.121-5.121a1.758,1.758,0,0,1,2.487,2.484l-1.323,1.323,2.8,2.8a23.171,23.171,0,0,1,10.731-5.61v-3.6H163.3a1.755,1.755,0,0,1-1.757-1.757V39.186a1.757,1.757,0,0,1,1.757-1.757h14.526a1.76,1.76,0,0,1,1.758,1.757v7.029a1.758,1.758,0,0,1-1.758,1.757h-2.05v3.652a23.138,23.138,0,0,1,10.5,5.56l2.8-2.8-1.321-1.323a1.757,1.757,0,1,1,2.484-2.484l5.124,5.121Zm-30.3-14.755v3.514h11.012V40.944Zm4.037,7.028v3.109a22.96,22.96,0,0,1,3.168.013V47.972Zm21.147,26.25a19.7,19.7,0,1,0-5.771,13.905,19.678,19.678,0,0,0,5.771-13.905Z" transform="translate(-145.25 -37.429)" fill="#2c2c2c" stroke="#fff" stroke-linejoin="round" stroke-width="0.3" fill-rule="evenodd"/>
  </g>
</svg>
