<svg xmlns="http://www.w3.org/2000/svg" width="20.389" height="22.428" viewBox="0 0 20.389 22.428">
  <g id="Line" transform="translate(-2 -1)">
    <path id="Trazado_635" data-name="Trazado 635" d="M21.37,5.078H18.311V4.058A3.058,3.058,0,0,0,15.253,1H9.136A3.058,3.058,0,0,0,6.078,4.058V5.078H3.019a1.019,1.019,0,0,0,0,2.039h.061L3.8,18.647a5.1,5.1,0,0,0,5.1,4.781h6.606a5.1,5.1,0,0,0,5.1-4.781l.7-11.53h.061a1.019,1.019,0,1,0,0-2.039ZM8.117,4.058A1.019,1.019,0,0,1,9.136,3.039h6.117a1.019,1.019,0,0,1,1.019,1.019V5.078H8.117ZM18.556,18.524A3.058,3.058,0,0,1,15.5,21.389H8.891a3.058,3.058,0,0,1-3.058-2.865L5.12,7.117H19.27Z" fill="#e83737"/>
    <path id="Trazado_636" data-name="Trazado 636" d="M10.019,10A1.019,1.019,0,0,0,9,11.019v6.117a1.019,1.019,0,0,0,2.039,0V11.019A1.019,1.019,0,0,0,10.019,10Z" transform="translate(0.136 0.175)" fill="#e83737"/>
    <path id="Trazado_637" data-name="Trazado 637" d="M14.019,10A1.019,1.019,0,0,0,13,11.019v6.117a1.019,1.019,0,1,0,2.039,0V11.019A1.019,1.019,0,0,0,14.019,10Z" transform="translate(0.214 0.175)" fill="#e83737"/>
  </g>
</svg>
