<svg id="edit" xmlns="http://www.w3.org/2000/svg" width="22.887" height="22.503" viewBox="0 0 22.887 22.503">
  <g id="Grupo_1843" data-name="Grupo 1843" transform="translate(0 1.379)">
    <g id="Grupo_1842" data-name="Grupo 1842">
      <path id="Trazado_633" data-name="Trazado 633" d="M17.789,48.323a1.111,1.111,0,0,0-1.112,1.112v3.492a1.112,1.112,0,0,1-1.112,1.112H3.335a1.112,1.112,0,0,1-1.112-1.112V38.473a1.112,1.112,0,0,1,1.112-1.112h6.46a1.112,1.112,0,1,0,0-2.224H3.335A3.339,3.339,0,0,0,0,38.473V52.927a3.339,3.339,0,0,0,3.335,3.335h12.23A3.339,3.339,0,0,0,18.9,52.927V49.435A1.111,1.111,0,0,0,17.789,48.323Z" transform="translate(0 -35.138)" fill="#6b24f8"/>
    </g>
  </g>
  <g id="Grupo_1845" data-name="Grupo 1845" transform="translate(6.404)">
    <g id="Grupo_1844" data-name="Grupo 1844">
      <path id="Trazado_634" data-name="Trazado 634" d="M158.5,5.533a4.279,4.279,0,0,0-6.009-.01l-7.527,7.527a5.8,5.8,0,0,0-1.7,4.12v2.49a1.111,1.111,0,0,0,1.112,1.112h2.49a5.8,5.8,0,0,0,4.121-1.7l7.517-7.517A4.264,4.264,0,0,0,158.5,5.533Zm-9.087,11.962a3.592,3.592,0,0,1-2.55,1.054h-1.379V17.17a3.592,3.592,0,0,1,1.053-2.549L151.5,9.659l2.875,2.875Zm7.515-7.515-.982.982-2.875-2.875.982-.982a2.033,2.033,0,0,1,2.875,2.875Z" transform="translate(-143.265 -4.296)" fill="#6b24f8"/>
    </g>
  </g>
</svg>
