<svg xmlns="http://www.w3.org/2000/svg" width="60.072" height="60.508" viewBox="0 0 60.072 60.508">
  <g id="Grupo_1842" data-name="Grupo 1842" transform="translate(0.25 0.258)">
    <path id="Trazado_886" data-name="Trazado 886" d="M309.935,95.577l.917,2.166a2.446,2.446,0,0,0,2.25,1.5,3.53,3.53,0,0,0,.917-.167,2.36,2.36,0,0,0,1.333-3.083l-.916-2.166a3.54,3.54,0,0,1,.5-3.5A8.162,8.162,0,0,0,316.183,82l-.917-2.166a2.375,2.375,0,0,0-4.416,1.749l.917,2.166a3.541,3.541,0,0,1-.5,3.5,7.861,7.861,0,0,0-1.333,8.332Z" transform="translate(-295.354 -78.319)" fill="#2c2c2c" stroke="#fff" stroke-linejoin="round" stroke-width="0.5"/>
    <path id="Trazado_887" data-name="Trazado 887" d="M391.254,95.577l.917,2.166a2.446,2.446,0,0,0,2.25,1.5,3.528,3.528,0,0,0,.916-.167,2.361,2.361,0,0,0,1.333-3.083l-.917-2.166a3.541,3.541,0,0,1,.5-3.5A8.163,8.163,0,0,0,397.5,82l-.917-2.166a2.375,2.375,0,0,0-4.416,1.749l.917,2.166a3.54,3.54,0,0,1-.5,3.5,8.033,8.033,0,0,0-1.333,8.332Z" transform="translate(-364.593 -78.319)" fill="#2c2c2c" stroke="#fff" stroke-linejoin="round" stroke-width="0.5"/>
    <path id="Trazado_888" data-name="Trazado 888" d="M473.014,95.577l.917,2.166a2.447,2.447,0,0,0,2.25,1.5,3.528,3.528,0,0,0,.917-.167,2.361,2.361,0,0,0,1.333-3.083l-.917-2.166a3.54,3.54,0,0,1,.5-3.5A8.163,8.163,0,0,0,479.263,82l-.917-2.166a2.375,2.375,0,0,0-4.416,1.749l.917,2.166a3.541,3.541,0,0,1-.5,3.5A8.034,8.034,0,0,0,473.014,95.577Z" transform="translate(-434.188 -78.319)" fill="#2c2c2c" stroke="#fff" stroke-linejoin="round" stroke-width="0.5"/>
    <path id="Trazado_890" data-name="Trazado 890" d="M275.171,252.7v-.25c0-7.415-18.746-9.415-29.827-9.415s-29.744,2-29.744,9.415v.25c0,2.833-.083,11.5,6.5,18.08,5.082,5.082,12.914,7.748,23.329,7.748s18.163-2.583,23.329-7.748c6.5-6.582,6.415-15.247,6.415-18.08Zm-47.491-3.166a84.4,84.4,0,0,1,17.663-1.75,79.168,79.168,0,0,1,17.663,1.75c5.249,1.166,6.832,2.5,7.248,2.916-1.083,1.25-8.415,4.583-24.912,4.583s-23.829-3.416-24.912-4.666c.417-.417,2-1.667,7.25-2.833Zm37.576,17.913c-4.166,4.166-10.831,6.332-19.913,6.332s-15.747-2.083-19.913-6.332a16.883,16.883,0,0,1-4.666-9.248c6.332,2.833,17.163,3.666,24.578,3.666s18.246-.917,24.578-3.666a17.156,17.156,0,0,1-4.666,9.248Z" transform="translate(-215.599 -218.532)" fill="#2c2c2c" stroke="#fff" stroke-linejoin="round" stroke-width="0.5"/>
  </g>
</svg>
