<svg xmlns="http://www.w3.org/2000/svg" width="33.492" height="33.202" viewBox="0 0 33.492 33.202">
  <g id="party" transform="translate(-0.002 0)">
    <path id="Trazado_535" data-name="Trazado 535" d="M29.3,18.077A14.656,14.656,0,0,0,12.619,4.036L1.3.058A.973.973,0,0,0,.016,1.138l1.77,10.476a.972.972,0,0,0-.137.2A14.647,14.647,0,0,0,14.658,33.2a14.457,14.457,0,0,0,6.613-1.582,14.848,14.848,0,0,0,4.928-4.06H28.34A4.869,4.869,0,0,0,33.2,22.7v-.13a4.546,4.546,0,0,0-3.9-4.493ZM3.166,8.107l4.46-3.764,2.9,1.018L3.677,11.131ZM5.5,3.6,2.79,5.88,2.209,2.44Zm9.161,27.664A12.7,12.7,0,0,1,2.822,13.928c.06.011,10-7.955,10-7.955A12.709,12.709,0,0,1,26.964,21.727h-9.4a5.266,5.266,0,0,0-1.092-1.373.973.973,0,1,0-1.3,1.448,3.327,3.327,0,0,1-.192,5.113.973.973,0,1,0,1.187,1.542,5.222,5.222,0,0,0,.905-.894h6.533a12.593,12.593,0,0,1-8.948,3.7Zm3.391-5.642a5.2,5.2,0,0,0,.14-1.945H20.17v1.945ZM31.259,22.7a2.921,2.921,0,0,1-2.918,2.918H22.115V23.672h6.223a.973.973,0,0,0,.973-.972l0-2.642a2.6,2.6,0,0,1,1.946,2.512Z" transform="translate(0 -0.003)" fill="#3cc471"/>
    <path id="Trazado_536" data-name="Trazado 536" d="M82.754,201.827a4.247,4.247,0,0,0-4.019,2.875.973.973,0,1,0,1.841.629,2.3,2.3,0,0,1,4.357,0,.973.973,0,0,0,1.841-.63A4.248,4.248,0,0,0,82.754,201.827Z" transform="translate(-73.578 -188.739)" fill="#3cc471"/>
    <path id="Trazado_537" data-name="Trazado 537" d="M248.407,205.937a.972.972,0,0,0,1.235-.606,2.3,2.3,0,0,1,4.357,0,.973.973,0,1,0,1.841-.63,4.247,4.247,0,0,0-8.038,0A.973.973,0,0,0,248.407,205.937Z" transform="translate(-231.681 -188.74)" fill="#3cc471"/>
    <circle id="Elipse_64" data-name="Elipse 64" cx="0.973" cy="0.973" r="0.973" transform="translate(25.651 4.48) rotate(-67.486)" fill="#3cc471"/>
    <circle id="Elipse_65" data-name="Elipse 65" cx="0.973" cy="0.973" r="0.973" transform="translate(29.944 9.461) rotate(-45)" fill="#3cc471"/>
    <circle id="Elipse_66" data-name="Elipse 66" cx="0.973" cy="0.973" r="0.973" transform="translate(16.029 9.15) rotate(-58.28)" fill="#3cc471"/>
    <ellipse id="Elipse_67" data-name="Elipse 67" cx="1.196" cy="0.897" rx="1.196" ry="0.897" transform="translate(0.6 28.109)" fill="#3cc471"/>
    <ellipse id="Elipse_68" data-name="Elipse 68" cx="1.196" cy="0.897" rx="1.196" ry="0.897" transform="translate(31.101 0)" fill="#3cc471"/>
    <path id="Trazado_538" data-name="Trazado 538" d="M417.706,458.659a.973.973,0,0,0-1.273.522.97.97,0,0,1-.9.6h-.012a.973.973,0,0,0-.036,1.945h.049a2.911,2.911,0,0,0,2.692-1.791A.973.973,0,0,0,417.706,458.659Z" transform="translate(-387.649 -428.845)" fill="#3cc471"/>
    <path id="Trazado_539" data-name="Trazado 539" d="M269.765,3.14h.049a.973.973,0,0,0-.036-1.945h-.012a.97.97,0,0,1-.9-.6.973.973,0,1,0-1.794.751A2.911,2.911,0,0,0,269.765,3.14Z" transform="translate(-249.682)" fill="#3cc471"/>
    <path id="Trazado_540" data-name="Trazado 540" d="M77.715,332.31a.973.973,0,0,0-1.339.316l-.007.01a.969.969,0,0,1-.988.431.973.973,0,0,0-.34,1.916,2.914,2.914,0,0,0,2.964-1.295l.025-.04A.973.973,0,0,0,77.715,332.31Z" transform="translate(-69.423 -310.625)" fill="#3cc471"/>
  </g>
</svg>
