<svg xmlns="http://www.w3.org/2000/svg" width="25.773" height="18.504" viewBox="0 0 25.773 18.504">
  <g id="label" transform="translate(25.497 -71.984) rotate(90)">
    <path id="Trazado_451" data-name="Trazado 451" d="M145.576,195.968a2.386,2.386,0,1,0-3.375,0A2.385,2.385,0,0,0,145.576,195.968Zm-1.687-2.479a.792.792,0,1,1-.56,1.352A.792.792,0,0,1,143.889,193.489Z" transform="translate(-65.864 -182.333)" fill="#6b24f8" stroke="#6b24f8" stroke-width="0.4"/>
    <path id="Trazado_452" data-name="Trazado 452" d="M272.794,320.8a2.386,2.386,0,1,0,1.687,4.074A2.385,2.385,0,0,0,272.794,320.8Zm.56,2.946a.792.792,0,1,1,0-1.12A.793.793,0,0,1,273.354,323.747Z" transform="translate(-188.347 -304.817)" fill="#6b24f8" stroke="#6b24f8" stroke-width="0.4"/>
    <path id="Trazado_453" data-name="Trazado 453" d="M184.257,225.945a.8.8,0,0,0-1.127,0l-6.16,6.16a.8.8,0,1,0,1.127,1.127l6.16-6.16A.8.8,0,0,0,184.257,225.945Z" transform="translate(-99.341 -214.465)" fill="#6b24f8" stroke="#6b24f8" stroke-width="0.4"/>
    <path id="Trazado_454" data-name="Trazado 454" d="M88.82,4.763,83.145.621a3.211,3.211,0,0,0-3.794,0l-5.7,4.144a3.586,3.586,0,0,0-1.472,2.891V21.459A3.841,3.841,0,0,0,76.021,25.3H86.45a3.841,3.841,0,0,0,3.837-3.837V7.651A3.587,3.587,0,0,0,88.82,4.763Zm-.127,16.7A2.245,2.245,0,0,1,86.451,23.7H76.021a2.245,2.245,0,0,1-2.243-2.243V7.654a1.987,1.987,0,0,1,.815-1.6l5.7-4.144a1.621,1.621,0,0,1,1.916,0L87.88,6.051a1.987,1.987,0,0,1,.813,1.6Z" transform="translate(0 0)" fill="#6b24f8" stroke="#6b24f8" stroke-width="0.4"/>
  </g>
</svg>
