<svg height="512" viewBox="0 0 64 64" width="512" xmlns="http://www.w3.org/2000/svg"><path d="m3 61v-19a7 7 0 0 1 7-7h18a7 7 0 0 1 7 7v19z" fill="#4891d3"/><path d="m10 41v-6a7 7 0 0 0 -7 7v19h32v-8h-13a12 12 0 0 1 -12-12z" fill="#2d72bc"/><path d="m21 43v-3h-3.8l-2.2-5-3 8 3-.8v.8a2 2 0 0 0 .937 1.689l-.937 10.311 3 4 3-4-.937-10.311a2 2 0 0 0 .937-1.689z" fill="#2d72bc"/><path d="m22 54-3 4-3-4 1-11h4z" fill="#c4f236"/><path d="m20.078 56.562a12.993 12.993 0 0 1 -1.625-7.541l.274-3.021h1.273a1.981 1.981 0 0 0 1.233-.436l-.233-2.564h-4l-1 11 3 4z" fill="#a1d51c"/><path d="m16 39h6a0 0 0 0 1 0 0v3a2 2 0 0 1 -2 2h-2a2 2 0 0 1 -2-2v-3a0 0 0 0 1 0 0z" fill="#a1d51c"/><path d="m19 42-2.683 1.073a1.994 1.994 0 0 0 1.683.927h2a1.994 1.994 0 0 0 1.683-.927z" fill="#c4f236"/><path d="m27 26.706a7 7 0 0 0 -2-13.706h-19v2a11.973 11.973 0 0 0 5 9.733z" fill="#57b7eb"/><path d="m25.319 18a16.821 16.821 0 0 1 -11.075-4.161l-.958-.839h-7.286v2a11.973 11.973 0 0 0 5 9.733l16 1.973a6.989 6.989 0 0 0 4.706-8.706z" fill="#4891d3"/><path d="m19 40 5 2-1-7z" fill="#57b7eb"/><path d="m19 40-5 2 1-7z" fill="#57b7eb"/><path d="m15 33.921v1.079l4 5 4-5v-1.079" fill="#e59730"/><path d="m19 35a8 8 0 0 1 -8-8v-6l3-3a13.058 13.058 0 0 0 8.327 3h4.673v6a8 8 0 0 1 -8 8z" fill="#f9e109"/><path d="m22.327 21a13.058 13.058 0 0 1 -8.327-3l-3 3v6a7.985 7.985 0 0 0 9.51 7.853 8.241 8.241 0 0 1 -6.51-8.163v-1.824a3.017 3.017 0 0 1 1.669-2.7 13.055 13.055 0 0 0 6.658 1.834h4.673v-3z" fill="#fcbc04"/><circle cx="16" cy="25" fill="#4891d3" r="1"/><circle cx="22" cy="25" fill="#4891d3" r="1"/><path d="m19 31.912a6.4 6.4 0 0 1 -3.555-1.08 1 1 0 0 1 1.11-1.664 4.4 4.4 0 0 0 4.89 0 1 1 0 1 1 1.11 1.664 6.4 6.4 0 0 1 -3.555 1.08z" fill="#e59730"/><path d="m30 43h28v18h-28z" fill="#d0d8da"/><path d="m58 46v-3h-28v18h28v-3h-14a8 8 0 0 1 -8-8v-4z" fill="#93999a"/><path d="m27 39h34v4h-34z" fill="#57b7eb"/><path d="m36 49h4a2 2 0 0 1 2 2v10a0 0 0 0 1 0 0h-8a0 0 0 0 1 0 0v-10a2 2 0 0 1 2-2z" fill="#f9e109"/><rect fill="#4891d3" height="8" rx="2" width="8" x="46" y="49"/><path d="m53 31h-18l-8 8h34z" fill="#fcbc04"/><path d="m44.472 36a4 4 0 0 1 -3.872-5h-5.6l-8 8h34l-3-3z" fill="#e59730"/><path d="m49.294 31h-10.588l-4.706 8h20z" fill="#f9e109"/><path d="m44.472 36a4 4 0 0 1 -3.872-5h-1.9l-4.7 8h20l-1.765-3z" fill="#fcbc04"/><path d="m45.588 31h-3.176l-1.412 8h6z" fill="#fcbc04"/><path d="m44.472 36a3.935 3.935 0 0 1 -2.748-1.1l-.724 4.1h6l-.529-3z" fill="#e59730"/><circle cx="46" cy="14" fill="#f9e109" r="11"/><circle cx="46" cy="14" fill="#fcbc04" r="9"/><path d="m46 5a8.981 8.981 0 0 0 -7.279 3.721 8.989 8.989 0 0 1 12.558 12.558 8.993 8.993 0 0 0 -5.279-16.279z" fill="#e59730"/><path d="m54 55v-4a2 2 0 0 0 -2-2h-4a1.99 1.99 0 0 0 -.82.18l6.64 6.64a1.99 1.99 0 0 0 .18-.82z" fill="#57b7eb"/><path d="m40 49h-4a2 2 0 0 0 -2 2h4a2 2 0 0 1 2 2v8h2v-10a2 2 0 0 0 -2-2z" fill="#fcbc04"/><path d="m36 50v-1a2 2 0 0 0 -2 2v10h8v-3.262a8 8 0 0 1 -6-7.738z" fill="#fcbc04"/><path d="m36 50v-1a2 2 0 0 0 -2 2h2.069a8.047 8.047 0 0 1 -.069-1z" fill="#e59730"/><path d="m40 61h2v-3.262a7.94 7.94 0 0 1 -2-.825z" fill="#e59730"/><path d="m42 56h-2a1 1 0 0 1 0-2h2z" fill="#a1d51c"/><path d="m46 13a1.5 1.5 0 1 1 1.5-1.5 1 1 0 0 0 2 0 3.494 3.494 0 0 0 -2.5-3.337v-1.163a1 1 0 0 0 -2 0v1.163a3.49 3.49 0 0 0 1 6.837 1.5 1.5 0 1 1 -1.5 1.5 1 1 0 0 0 -2 0 3.494 3.494 0 0 0 2.5 3.337v1.163a1 1 0 0 0 2 0v-1.163a3.49 3.49 0 0 0 -1-6.837z" fill="#f9e109"/></svg>