<svg xmlns="http://www.w3.org/2000/svg" width="90" height="63.744" viewBox="0 0 90 63.744">
  <g id="feedback" transform="translate(0 -73.537)">
    <path id="Path_77" data-name="Path 77" d="M84.644,73.537H26.836a1.786,1.786,0,0,0,0,3.571H84.644a1.787,1.787,0,0,1,1.785,1.785v42.189a1.787,1.787,0,0,1-1.785,1.785H53.386a1.785,1.785,0,0,0-1.4.679l-7.2,9.123-7.637-9.16a1.786,1.786,0,0,0-1.371-.642H5.356a1.787,1.787,0,0,1-1.785-1.785V78.893a1.787,1.787,0,0,1,1.785-1.785h6.793a1.786,1.786,0,0,0,0-3.57H5.356A5.362,5.362,0,0,0,0,78.893v42.189a5.362,5.362,0,0,0,5.356,5.356H34.939l8.511,10.208a1.8,1.8,0,0,0,2.772-.037l8.028-10.171H84.644A5.362,5.362,0,0,0,90,121.081V78.893a5.362,5.362,0,0,0-5.356-5.356Z" fill="#070040"/>
    <path id="Path_78" data-name="Path 78" d="M54.975,165.661a1.785,1.785,0,0,0,.323,1.69l3.476,4.2-.345,5.439c-.271,4.26,6.125-.264,7.505-.237s7.774,4.449,7.505.237l-.346-5.439,3.476-4.2a1.81,1.81,0,0,0-.932-2.868l-5.279-1.352-2.917-4.6a1.81,1.81,0,0,0-3.016,0l-2.917,4.6-5.279,1.352a1.785,1.785,0,0,0-1.255,1.178Zm8.106.753c1.32-.338,2.189-2.547,2.853-3.6.654,1.032,1.546,3.261,2.853,3.6l3.236.829-2.131,2.573a1.785,1.785,0,0,0-.407,1.252L69.7,174.4l-3.105-1.232a1.786,1.786,0,0,0-1.317,0L62.17,174.4l.212-3.334a1.785,1.785,0,0,0-.407-1.252l-2.131-2.573Z" transform="translate(-45.088 -69.154)" fill="#672bbf"/>
    <path id="Path_79" data-name="Path 79" d="M211.2,165.66a1.786,1.786,0,0,0-1.255-1.178l-5.279-1.352-2.917-4.6a1.81,1.81,0,0,0-3.016,0l-2.917,4.6-5.279,1.352a1.785,1.785,0,0,0-.932,2.868l3.476,4.2-.346,5.439c-.272,4.26,6.125-.264,7.505-.237s7.774,4.449,7.505.237l-.346-5.439,3.476-4.2a1.785,1.785,0,0,0,.323-1.69Zm-7,4.155a1.785,1.785,0,0,0-.407,1.252L204,174.4c-1.115-.442-2.538-1.357-3.763-1.357s-2.651.916-3.763,1.357l.212-3.334a1.785,1.785,0,0,0-.407-1.252l-2.131-2.573,3.236-.829c1.32-.338,2.189-2.547,2.853-3.6.654,1.032,1.546,3.261,2.853,3.6l3.236.829Z" transform="translate(-155.415 -69.153)" fill="#672bbf"/>
    <path id="Path_80" data-name="Path 80" d="M345.567,165.66a1.785,1.785,0,0,0-1.255-1.178l-5.279-1.352-2.917-4.6a1.81,1.81,0,0,0-3.016,0l-2.917,4.6-5.279,1.352a1.81,1.81,0,0,0-.932,2.868l3.476,4.2-.346,5.439c-.271,4.26,6.122-.264,7.505-.237s7.774,4.45,7.505.237l-.345-5.439,3.476-4.2A1.784,1.784,0,0,0,345.567,165.66Zm-7,4.155a1.785,1.785,0,0,0-.407,1.252l.212,3.334-3.105-1.232a1.786,1.786,0,0,0-1.317,0l-3.105,1.232.212-3.334a1.785,1.785,0,0,0-.407-1.252l-2.131-2.573,3.236-.829c1.32-.338,2.189-2.547,2.853-3.6.654,1.032,1.546,3.261,2.853,3.6l3.236.829Z" transform="translate(-265.81 -69.153)" fill="#672bbf"/>
    <path id="Path_81" data-name="Path 81" d="M100.218,76.809a1.784,1.784,0,1,0-.675-2.125A1.8,1.8,0,0,0,100.218,76.809Z" transform="translate(-81.677 -0.003)" fill="#070040"/>
  </g>
</svg>
